<?xml version="1.0" encoding="UTF-8"?>
<svg version="1.1" xmlns="http://www.w3.org/2000/svg" width="500" height="500">
<path d="M0 0 C0.66708984 0.25007813 1.33417969 0.50015625 2.02148438 0.7578125 C16.96098197 6.44012925 29.59987586 15.08705804 42 25 C42.77988281 25.54914063 43.55976563 26.09828125 44.36328125 26.6640625 C44.90339844 27.10492188 45.44351562 27.54578125 46 28 C46 28.66 46 29.32 46 30 C46.57621094 30.25265625 47.15242188 30.5053125 47.74609375 30.765625 C57.02727168 35.8485578 63.73701294 46.67253764 70 55 C70.65097656 55.8559375 71.30195313 56.711875 71.97265625 57.59375 C96.51762841 91.14040898 103.48621567 133.49794765 97.50048828 173.90625 C95.07525495 188.89774108 91.54381989 206.18427016 83 219 C82.34 219 81.68 219 81 219 C81 219.66 81 220.32 81 221 C61.59216973 237.66745965 35.41262854 246.11327769 10 245 C5.88629851 244.59694169 1.8263869 243.99227015 -2.25 243.3125 C-3.33901611 243.13315918 -4.42803223 242.95381836 -5.55004883 242.76904297 C-14.36490909 241.24584138 -22.62061508 239.14458154 -31 236 C-32.12664062 235.58234375 -33.25328125 235.1646875 -34.4140625 234.734375 C-49.17344761 228.83062096 -63.20152549 220.67208293 -75 210 C-76.28777344 208.87271484 -76.28777344 208.87271484 -77.6015625 207.72265625 C-80.10025685 205.51459553 -82.55771769 203.27017517 -85 201 C-85.66515625 200.38898438 -86.3303125 199.77796875 -87.015625 199.1484375 C-101.29778256 185.504913 -113.49412007 168.89354296 -114.3125 148.625 C-114.15695849 136.10390814 -110.71551864 124.92446058 -103 115 C-102.37996094 114.19949219 -101.75992188 113.39898437 -101.12109375 112.57421875 C-92.13983976 101.77857002 -79.97619869 94.82201636 -66 93 C-50.91736697 91.67095623 -37.09396937 95.57303246 -25.37890625 105.140625 C-19.39016299 110.3729891 -13.4142388 115.71312923 -10 123 C-8.41910782 102.27274697 -18.42546905 82.84064288 -31 67 C-45.85854873 49.99322736 -67.20668902 38.52384486 -89.8984375 36.77685547 C-116.78438671 35.42663226 -140.50799577 42.01587159 -162.91015625 56.99609375 C-166 59 -166 59 -169 60 C-169 60.66 -169 61.32 -169 62 C-173.47058824 66 -173.47058824 66 -176 66 C-176 66.66 -176 67.32 -176 68 C-176.66 68 -177.32 68 -178 68 C-178 68.66 -178 69.32 -178 70 C-178.66 70 -179.32 70 -180 70 C-180.23589844 70.56074219 -180.47179687 71.12148437 -180.71484375 71.69921875 C-182.29917677 74.53560826 -184.28633863 76.49359382 -186.5625 78.8125 C-199.89365349 93.07980961 -207.82650857 112.4790728 -213.24609375 131.015625 C-214 133 -214 133 -216 134 C-217.29024454 129.4618985 -216.72721226 125.43811181 -215.9375 120.875 C-215.8024707 120.08947754 -215.66744141 119.30395508 -215.52832031 118.49462891 C-210.44365945 90.91171056 -197.68162396 66.50626808 -180 45 C-179.44183594 44.21238281 -178.88367188 43.42476562 -178.30859375 42.61328125 C-177.87675781 42.08089844 -177.44492188 41.54851562 -177 41 C-176.34 41 -175.68 41 -175 41 C-174.773125 40.443125 -174.54625 39.88625 -174.3125 39.3125 C-172.62449964 36.33840412 -170.53323483 34.27991135 -168 32 C-167.34 32 -166.68 32 -166 32 C-166 31.34 -166 30.68 -166 30 C-163.93283439 28.20745055 -161.86022617 26.53127683 -159.6875 24.875 C-159.0466748 24.38217529 -158.40584961 23.88935059 -157.74560547 23.3815918 C-156.44103243 22.38163575 -155.13406751 21.38479233 -153.82470703 20.39111328 C-152.26545486 19.20237648 -150.72273555 17.99200628 -149.18359375 16.77734375 C-142.21418434 11.42526293 -134.75588993 7.59652173 -126.83935547 3.87109375 C-125.2590335 3.12267474 -123.69246229 2.34534166 -122.12890625 1.5625 C-84.3090015 -16.85815376 -38.46452772 -14.68465203 0 0 Z M-85 127 C-85 127.66 -85 128.32 -85 129 C-85.66 129 -86.32 129 -87 129 C-93.98355149 137.5951403 -96.89544755 146.96157378 -96 158 C-93.81157199 168.30456652 -88.59618052 176.90510221 -80 183 C-70.84667151 188.46541755 -61.73311079 189.16584934 -51.17578125 187.57421875 C-41.44728629 185.08482365 -34.13286832 178.47252303 -29 170 C-25.0369991 163.10978253 -25.70671232 155.73410477 -26 148 C-26.68964844 148.15597656 -27.37929688 148.31195313 -28.08984375 148.47265625 C-38.19902436 150.56660175 -44.98575661 150.47166459 -53.828125 144.74609375 C-58.36887841 141.09552401 -60.12944651 136.69966155 -61 131 C-61.06652855 128.73004581 -61.08543751 126.45831305 -61.0625 124.1875 C-61.05347656 123.02605469 -61.04445312 121.86460937 -61.03515625 120.66796875 C-61.02355469 119.78753906 -61.01195312 118.90710938 -61 118 C-69.78674171 117.00150662 -78.58595743 121.12633465 -85 127 Z " fill="#3ABEE7" transform="translate(309,106)"/>
<path d="M0 0 C1.28003906 0.54720703 1.28003906 0.54720703 2.5859375 1.10546875 C15.17059886 6.89608535 26.56253167 16.02693575 37 25 C37.5760498 25.49258301 38.15209961 25.98516602 38.74560547 26.49267578 C45.11011412 31.93921052 51.41665235 37.43171845 57.5625 43.125 C63.76501271 48.78776603 70.27861381 53.97123846 77 59 C77.62003906 59.46583496 78.24007812 59.93166992 78.87890625 60.41162109 C104.6903329 79.5780629 133.11782347 88.16529014 165.23046875 85.7578125 C171.64678288 84.80652841 177.61107789 82.42840758 183.60864258 80.03271484 C186.56467578 78.8555367 188.78542175 78 192 78 C192 78.99 192 79.98 192 81 C186.65116279 86 186.65116279 86 184 86 C184 86.66 184 87.32 184 88 C179.86190492 91.26442198 175.39922537 94.09997186 171 97 C169.453125 98.03447266 169.453125 98.03447266 167.875 99.08984375 C145.57685575 113.45280656 118.56095536 122.28044526 92 123 C91.3385498 123.02046387 90.67709961 123.04092773 89.99560547 123.06201172 C44.30266281 124.31429848 4.16405245 108.27060309 -29 77 C-29.66257813 76.39027344 -30.32515625 75.78054688 -31.0078125 75.15234375 C-53.99516879 53.23524898 -67.98477852 23.02913453 -73 -8 C-50.50031733 -18.5281534 -21.38978376 -9.4697014 0 0 Z " fill="#3ABEE7" transform="translate(167,289)"/>
<path d="M0 0 C-3.00272818 2.00181879 -5.60180976 2.86726992 -9 4 C-9.99 4.66 -10.98 5.32 -12 6 C-15.1875 6.125 -15.1875 6.125 -18 6 C-18 6.66 -18 7.32 -18 8 C-19.45706726 8.50367757 -20.91570096 9.00282556 -22.375 9.5 C-23.18710938 9.7784375 -23.99921875 10.056875 -24.8359375 10.34375 C-27 11 -27 11 -29 11 C-29.2784375 11.9590625 -29.2784375 11.9590625 -29.5625 12.9375 C-31 15 -31 15 -34.625 15.75 C-36.295625 15.87375 -36.295625 15.87375 -38 16 C-38 16.66 -38 17.32 -38 18 C-39.485 18.495 -39.485 18.495 -41 19 C-42.15811388 21.94729537 -42.15811388 21.94729537 -42 25 C-42.9075 24.95875 -43.815 24.9175 -44.75 24.875 C-47.8782046 24.99531556 -49.38614006 25.3914708 -52 27 C-50.02 27.495 -50.02 27.495 -48 28 C-48.375 30.4375 -48.375 30.4375 -49 33 C-49.99 33.495 -49.99 33.495 -51 34 C-50.505 36.97 -50.505 36.97 -50 40 C-54.74963401 43.68096635 -58.00708997 44.58669586 -64 45 C-64 45.99 -64 46.98 -64 48 C-63.01 47.67 -62.02 47.34 -61 47 C-60.154375 47.33 -59.30875 47.66 -58.4375 48 C-52.91906674 49.6053624 -47.4154969 48.80516563 -42 47 C-42 46.34 -42 45.68 -42 45 C-41.34 45 -40.68 45 -40 45 C-40 44.34 -40 43.68 -40 43 C-35.38 43 -30.76 43 -26 43 C-28.77918974 44.38959487 -31.31534461 45.53962557 -34.203125 46.59375 C-44.52453205 50.46903559 -53.73643188 54.87058525 -62.91015625 60.99609375 C-66 63 -66 63 -69 64 C-69 64.66 -69 65.32 -69 66 C-73.47058824 70 -73.47058824 70 -76 70 C-76 70.66 -76 71.32 -76 72 C-76.66 72 -77.32 72 -78 72 C-78 72.66 -78 73.32 -78 74 C-78.66 74 -79.32 74 -80 74 C-80.23589844 74.56074219 -80.47179687 75.12148437 -80.71484375 75.69921875 C-82.29917677 78.53560826 -84.28633863 80.49359382 -86.5625 82.8125 C-99.89365349 97.07980961 -107.82650857 116.4790728 -113.24609375 135.015625 C-114 137 -114 137 -116 138 C-117.29024454 133.4618985 -116.72721226 129.43811181 -115.9375 124.875 C-115.8024707 124.08947754 -115.66744141 123.30395508 -115.52832031 122.49462891 C-110.44365945 94.91171056 -97.68162396 70.50626808 -80 49 C-79.44183594 48.21238281 -78.88367188 47.42476562 -78.30859375 46.61328125 C-77.87675781 46.08089844 -77.44492188 45.54851562 -77 45 C-76.34 45 -75.68 45 -75 45 C-74.773125 44.443125 -74.54625 43.88625 -74.3125 43.3125 C-72.62449964 40.33840412 -70.53323483 38.27991135 -68 36 C-67.34 36 -66.68 36 -66 36 C-66 35.34 -66 34.68 -66 34 C-63.93283439 32.20745055 -61.86022617 30.53127683 -59.6875 28.875 C-58.72626221 28.13576294 -58.72626221 28.13576294 -57.74560547 27.3815918 C-56.44103243 26.38163575 -55.13406751 25.38479233 -53.82470703 24.39111328 C-52.26545486 23.20237648 -50.72273555 21.99200628 -49.18359375 20.77734375 C-41.67301609 15.00967877 -33.52671345 11.01178528 -25 7 C-23.97132813 6.50242187 -22.94265625 6.00484375 -21.8828125 5.4921875 C-6.03268546 -2.00631453 -6.03268546 -2.00631453 0 0 Z " fill="#40BCE6" transform="translate(209,102)"/>
<path d="M0 0 C1.67542976 0.28604898 3.34385343 0.61781233 5 1 C5 1.66 5 2.32 5 3 C5.66 3 6.32 3 7 3 C6.67 3.99 6.34 4.98 6 6 C5.443125 5.731875 4.88625 5.46375 4.3125 5.1875 C3.549375 5.125625 2.78625 5.06375 2 5 C-0.77122275 7.35426499 -0.77122275 7.35426499 -3 10 C-3.66 9.67 -4.32 9.34 -5 9 C-4.67 9.99 -4.34 10.98 -4 12 C-3.34 12.33 -2.68 12.66 -2 13 C-1.67 12.01 -1.34 11.02 -1 10 C2.0625 8.8125 2.0625 8.8125 5 8 C5.103125 8.639375 5.20625 9.27875 5.3125 9.9375 C5.539375 10.618125 5.76625 11.29875 6 12 C6.99 12.33 7.98 12.66 9 13 C8.67 14.32 8.34 15.64 8 17 C7.360625 17.103125 6.72125 17.20625 6.0625 17.3125 C5.381875 17.539375 4.70125 17.76625 4 18 C3.67 18.99 3.34 19.98 3 21 C2.01 21 1.02 21 0 21 C-0.33 21.99 -0.66 22.98 -1 24 C-1.33 24.33 -1.66 24.66 -2 25 C-2.20775561 26.66204487 -2.36718255 28.33029491 -2.5 30 C-2.88888889 34.88888889 -2.88888889 34.88888889 -4 36 C-4.28208865 39.70049015 -4.23190269 43.41505215 -4.25 47.125 C-4.270625 48.15882813 -4.29125 49.19265625 -4.3125 50.2578125 C-4.34363028 56.359348 -3.79406876 60.57362435 -1 66 C-1 66.66 -1 67.32 -1 68 C-2.875 67.8125 -2.875 67.8125 -5 67 C-6.25 64.4375 -6.25 64.4375 -7 62 C-8.98 62.495 -8.98 62.495 -11 63 C-11 64.65 -11 66.3 -11 68 C-15.26978479 65.1534768 -16.62799684 61.88733464 -18 57 C-18.31754794 52.64226522 -18.24259936 48.36004968 -18 44 C-17.34 44.33 -16.68 44.66 -16 45 C-16 45.66 -16 46.32 -16 47 C-14.35 47.66 -12.7 48.32 -11 49 C-11 47.02 -11 45.04 -11 43 C-12.32 43 -13.64 43 -15 43 C-15.06058594 42.14277344 -15.12117187 41.28554687 -15.18359375 40.40234375 C-15.66666987 33.16891659 -15.66666987 33.16891659 -16.6875 26 C-17.04288689 22.58828588 -16.72122817 20.95067686 -15 18 C-14.0409375 17.319375 -14.0409375 17.319375 -13.0625 16.625 C-10.04036407 14.24392321 -9.34845769 11.57341287 -8 8 C-7.34 8 -6.68 8 -6 8 C-6 7.34 -6 6.68 -6 6 C-4.37550757 4.29220027 -2.70779973 2.62449243 -1 1 C-0.67 0.67 -0.34 0.34 0 0 Z " fill="#39BEE8" transform="translate(217,213)"/>
<path d="M0 0 C17.03947931 4.12245467 32.66602438 14.26837322 46.01171875 25.37109375 C48.10840554 27.14319974 48.10840554 27.14319974 51 29 C51 29.66 51 30.32 51 31 C51.57621094 31.25265625 52.15242188 31.5053125 52.74609375 31.765625 C62.02727168 36.8485578 68.73701294 47.67253764 75 56 C75.65097656 56.8559375 76.30195313 57.711875 76.97265625 58.59375 C98.97308312 88.66267055 108.50307068 128.59909238 103.8125 165.375 C103.68302979 166.40069092 103.55355957 167.42638184 103.42016602 168.4831543 C99.89397504 194.65903744 99.89397504 194.65903744 95 202 C94.69736799 195.90252546 94.68255973 191.06801691 97.19921875 185.390625 C99.04960059 179.86655824 99.36066308 173.77659713 100 168 C100.66 168 101.32 168 102 168 C101.90626284 162.67946356 101.80012382 157.3593713 101.68261719 152.03930664 C101.64439633 150.23045582 101.6095315 148.42153079 101.578125 146.61254883 C101.53232443 144.00835698 101.47435526 141.404673 101.4140625 138.80078125 C101.40251129 137.99538406 101.39096008 137.18998688 101.37905884 136.36018372 C101.26780401 132.10247342 100.83046755 128.91709381 99 125 C98.65269549 122.73700794 98.36672881 120.46419072 98.125 118.1875 C97.40578792 112.39384711 96.39461558 106.79391347 95 101.125 C94.83387207 100.42914795 94.66774414 99.7332959 94.49658203 99.01635742 C94.06513987 97.32558776 93.54038917 95.65916363 93 94 C92.34 93.67 91.68 93.34 91 93 C90.375 89.9375 90.375 89.9375 90 87 C88.515 86.505 88.515 86.505 87 86 C86.33984375 84.00390625 86.33984375 84.00390625 85.9375 81.5625 C85.36828485 77.85836343 85.36828485 77.85836343 83 75 C83 74.01 83 73.02 83 72 C81.88625 72.04125 80.7725 72.0825 79.625 72.125 C76 72 76 72 74 70 C74.495 68.515 74.495 68.515 75 67 C75.33 67.33 75.66 67.66 76 68 C75.74438677 65.6568787 75.40729228 63.32156597 75 61 C74.34 60.67 73.68 60.34 73 60 C71.98234073 58.00892752 70.98422146 56.00781177 70 54 C69.443125 53.2575 68.88625 52.515 68.3125 51.75 C67 50 67 50 67 48 C65.515 47.505 65.515 47.505 64 47 C63.67 46.34 63.34 45.68 63 45 C62.38125 44.731875 61.7625 44.46375 61.125 44.1875 C58.36133509 42.64309902 57.60972325 40.68287208 56 38 C55.01 37.505 55.01 37.505 54 37 C52 36 52 36 50.5625 33.5625 C48.75504087 30.59826702 46.97038778 29.68589576 44 28 C44 27.34 44 26.68 44 26 C43.34 26 42.68 26 42 26 C42 25.34 42 24.68 42 24 C37.05250648 22.04968392 37.05250648 22.04968392 32 23 C32 22.34 32 21.68 32 21 C31.21625 21.04125 30.4325 21.0825 29.625 21.125 C27 21 27 21 25 19 C23.68252676 18.30251417 22.35085807 17.63040043 21 17 C22.32 17 23.64 17 25 17 C24.67 15.35 24.34 13.7 24 12 C23.401875 11.855625 22.80375 11.71125 22.1875 11.5625 C20.43849596 11.1127561 18.71322977 10.57107659 17 10 C17 9.34 17 8.68 17 8 C15.02 8 13.04 8 11 8 C10.67 7.01 10.34 6.02 10 5 C9.0925 4.87625 8.185 4.7525 7.25 4.625 C4.41029677 4.07890323 2.47409409 3.42736197 0 2 C0 1.34 0 0.68 0 0 Z " fill="#6DB9D4" transform="translate(304,105)"/>
<path d="M0 0 C0.495 1.485 0.495 1.485 1 3 C5.95 3.99 10.9 4.98 16 6 C16.495 8.475 16.495 8.475 17 11 C16.34 11.66 15.68 12.32 15 13 C16.95216435 14.95216435 18.53199953 15.84826645 21 17 C17.75482699 18.08414973 16.04067774 17.91989484 12.875 16.6875 C4.01741651 13.26145356 -4.83801344 12.66930318 -14.25 12.75 C-15.88956665 12.75580078 -15.88956665 12.75580078 -17.56225586 12.76171875 C-25.52411876 12.84671454 -33.17783426 13.43276822 -41 15 C-41 14.34 -41 13.68 -41 13 C-39.35 12.34 -37.7 11.68 -36 11 C-36 10.34 -36 9.68 -36 9 C-35.34 8.67 -34.68 8.34 -34 8 C-34 7.01 -34 6.02 -34 5 C-36.97 4.505 -36.97 4.505 -40 4 C-40 2.68 -40 1.36 -40 0 C-26.56418261 -0.83429956 -13.42409627 -1.07724229 0 0 Z " fill="#3DBDE6" transform="translate(224,130)"/>
<path d="M0 0 C0.99 0.495 0.99 0.495 2 1 C0.125 6.75 0.125 6.75 -1 9 C-1.66 9 -2.32 9 -3 9 C-3 9.66 -3 10.32 -3 11 C-22.35205218 27.61955738 -48.63040479 36.20235048 -74 35 C-78.30103476 34.53256778 -82.54916119 33.85585808 -86.8125 33.125 C-87.89208984 32.95097656 -88.97167969 32.77695312 -90.08398438 32.59765625 C-95.51168214 31.69914098 -100.75366746 30.66146337 -106 29 C-104.5 27.875 -104.5 27.875 -102 27 C-99.2226918 27.42401652 -96.70360217 28.18891935 -94 29 C-94 27.68 -94 26.36 -94 25 C-93.01 24.34 -92.02 23.68 -91 23 C-91.99 22.67 -92.98 22.34 -94 22 C-94 21.34 -94 20.68 -94 20 C-92.68 19.67 -91.36 19.34 -90 19 C-89.67 19.99 -89.34 20.98 -89 22 C-87.824375 21.814375 -86.64875 21.62875 -85.4375 21.4375 C-81.38731406 20.91769004 -78.00125547 21.2497646 -74 22 C-74 22.66 -74 23.32 -74 24 C-73.236875 24.0825 -72.47375 24.165 -71.6875 24.25 C-68.47626739 25.14615794 -67.70625501 26.21611025 -66 29 C-67.98 29.66 -69.96 30.32 -72 31 C-60.11200259 31.36641088 -48.33565786 30.79449588 -37 27 C-35.68 27 -34.36 27 -33 27 C-32.505 25.515 -32.505 25.515 -32 24 C-29.69 23.67 -27.38 23.34 -25 23 C-25 22.34 -25 21.68 -25 21 C-24.236875 20.7525 -23.47375 20.505 -22.6875 20.25 C-19.89180331 19.22075291 -19.89180331 19.22075291 -18.5 16.875 C-18.005 16.25625 -17.51 15.6375 -17 15 C-14.3125 14.75 -14.3125 14.75 -12 15 C-12 14.34 -12 13.68 -12 13 C-10.36935236 11.94228261 -8.69719127 10.94726954 -7 10 C-3.87525373 8.36526484 -3.87525373 8.36526484 -3.3125 5.875 C-3.209375 5.25625 -3.10625 4.6375 -3 4 C-2.01 4 -1.02 4 0 4 C0 2.68 0 1.36 0 0 Z " fill="#3CBEE8" transform="translate(393,316)"/>
<path d="M0 0 C0.33 0.66 0.66 1.32 1 2 C0.236875 2.7425 -0.52625 3.485 -1.3125 4.25 C-3.95571199 6.823554 -3.95571199 6.823554 -5.6875 9.3125 C-6.3371875 10.1478125 -6.3371875 10.1478125 -7 11 C-7.66 11 -8.32 11 -9 11 C-9 11.66 -9 12.32 -9 13 C-9.66 13 -10.32 13 -11 13 C-11.226875 14.0725 -11.45375 15.145 -11.6875 16.25 C-13 20 -13 20 -15.5625 22 C-18.33738592 23.87159604 -18.33738592 23.87159604 -18.875 27.5 C-19.16414136 30.74686287 -19.16414136 30.74686287 -18.51171875 32.796875 C-17.8122007 35.80854051 -17.90662915 38.66291486 -17.9375 41.75 C-17.94652344 42.92046875 -17.95554688 44.0909375 -17.96484375 45.296875 C-17.97644531 46.18890625 -17.98804688 47.0809375 -18 48 C-16.68 48 -15.36 48 -14 48 C-14 49.98 -14 51.96 -14 54 C-18.875 52.25 -18.875 52.25 -20 50 C-20.6727248 58.70057407 -19.61280192 64.55361975 -15 72 C-14.87753906 71.36578125 -14.75507813 70.7315625 -14.62890625 70.078125 C-14 68 -14 68 -11.9375 66.75 C-11.298125 66.5025 -10.65875 66.255 -10 66 C-9.7525 66.969375 -9.505 67.93875 -9.25 68.9375 C-8.8375 69.948125 -8.425 70.95875 -8 72 C-5.96756452 72.96877057 -5.96756452 72.96877057 -4 73 C-4.875 77.75 -4.875 77.75 -6 80 C-4.02 79.505 -4.02 79.505 -2 79 C-2 79.99 -2 80.98 -2 82 C-2.99 82 -3.98 82 -5 82 C-3.71567661 85.49705129 -3.71567661 85.49705129 -2 89 C-0.515 89.495 -0.515 89.495 1 90 C1.66 90.99 2.32 91.98 3 93 C5.05925139 93.72382467 5.05925139 93.72382467 7 94 C7.33 95.98 7.66 97.96 8 100 C5 100 5 100 3.125 98.5234375 C-11.27115864 83.96849769 -24.4553353 67.85411237 -25.3125 46.625 C-25.10982963 30.3100349 -18.89375225 17.80438841 -7.93359375 5.8828125 C-5.45993633 3.47411982 -2.98765708 1.71790282 0 0 Z " fill="#42BBE3" transform="translate(220,208)"/>
<path d="M0 0 C2.10914471 4.92133765 1.81234221 7.06640176 0 12 C-0.19047978 15.74610227 -0.18684691 18.43945927 1 22 C1.66 22.33 2.32 22.66 3 23 C3 23.66 3 24.32 3 25 C4.65 24.67 6.3 24.34 8 24 C10 27.75 10 27.75 10 30 C14.455 30.99 14.455 30.99 19 32 C19 32.66 19 33.32 19 34 C23.38585753 34.16868683 26.15524966 34.05053352 30 32 C31.66619163 31.96021035 33.33390636 31.95629918 35 32 C35.10845027 35.04263267 35.18752063 38.08136204 35.25 41.125 C35.28351563 41.9809375 35.31703125 42.836875 35.3515625 43.71875 C35.43954232 49.43743831 34.63824244 52.36950962 31 57 C30.15054922 59.02934024 30.15054922 59.02934024 29.75 60.875 C29.5025 61.90625 29.255 62.9375 29 64 C26.525 64.495 26.525 64.495 24 65 C23.505 66.485 23.505 66.485 23 68 C22.34 68 21.68 68 21 68 C21 68.66 21 69.32 21 70 C14.06553284 74.98414827 7.18854563 76.47431152 -1.125 76.25 C-1.89714844 76.24484375 -2.66929687 76.2396875 -3.46484375 76.234375 C-7.71482952 76.17645356 -11.85121906 76.008115 -16 75 C-16.33 74.34 -16.66 73.68 -17 73 C-17.99 72.67 -18.98 72.34 -20 72 C-20 71.34 -20 70.68 -20 70 C-20.66 70 -21.32 70 -22 70 C-21.505 69.01 -21.505 69.01 -21 68 C-20.20335937 68.41572266 -20.20335937 68.41572266 -19.390625 68.83984375 C-18.68421875 69.20207031 -17.9778125 69.56429687 -17.25 69.9375 C-16.55390625 70.29714844 -15.8578125 70.65679687 -15.140625 71.02734375 C-6.77929069 74.82656317 4.25091276 74.03348976 12.7578125 71.03515625 C21.04734707 67.20810632 27.12300952 60.6017813 30.875 52.3125 C32.77920566 46.7557829 32.23825586 40.78873498 32 35 C31.38253906 35.15597656 30.76507813 35.31195313 30.12890625 35.47265625 C21.71233663 37.4070581 15.47641977 37.63216872 7.75 33.4375 C2.24553151 29.87628866 -0.79709512 25.70124579 -2.8125 19.5 C-3.21486465 14.13513795 -3.15424861 9.27656507 -2 4 C-2.66386719 4.13277344 -3.32773438 4.26554688 -4.01171875 4.40234375 C-8.34114583 5.26822917 -12.67057292 6.13411458 -17 7 C-16.67 5.68 -16.34 4.36 -16 3 C-13.69 3 -11.38 3 -9 3 C-9 2.34 -9 1.68 -9 1 C-6.04335481 -0.4783226 -3.25770263 -0.06032783 0 0 Z " fill="#65B8D5" transform="translate(250,220)"/>
<path d="M0 0 C0 0.33 0 0.66 0 1 C-4.1757972 0.55259316 -8.33625119 0.09726073 -12.4921875 -0.51171875 C-23.04772365 -2.00903323 -33.34832814 -2.20840228 -44 -2 C-43.01 -1.67 -42.02 -1.34 -41 -1 C-41 -0.34 -41 0.32 -41 1 C-41.99 1 -42.98 1 -44 1 C-44 4.3 -44 7.6 -44 11 C-44.66 11 -45.32 11 -46 11 C-45.98952637 11.62567871 -45.97905273 12.25135742 -45.96826172 12.89599609 C-45.92676809 15.7222901 -45.90069527 18.54852011 -45.875 21.375 C-45.85824219 22.35984375 -45.84148437 23.3446875 -45.82421875 24.359375 C-45.81777344 25.30039062 -45.81132813 26.24140625 -45.8046875 27.2109375 C-45.79421387 28.08024902 -45.78374023 28.94956055 -45.77294922 29.84521484 C-46 32 -46 32 -48 34 C-51.26079999 25.31540269 -54.28139487 16.65688118 -56.4375 7.625 C-56.61313477 6.90642822 -56.78876953 6.18785645 -56.96972656 5.44750977 C-57.72809897 2.12304462 -58.09890142 0.29670426 -57 -3 C-39.69450705 -10.41302549 -17.1376424 -5.14889256 0 0 Z " fill="#41BCE5" transform="translate(152,283)"/>
<path d="M0 0 C0 0.99 0 1.98 0 3 C-5.34883721 8 -5.34883721 8 -8 8 C-8 8.66 -8 9.32 -8 10 C-12.13809508 13.26442198 -16.60077463 16.09997186 -21 19 C-22.03125 19.68964844 -23.0625 20.37929688 -24.125 21.08984375 C-30.41072027 25.13868143 -36.80758779 28.44790432 -43.625 31.5 C-44.40770264 31.85070557 -45.19040527 32.20141113 -45.99682617 32.56274414 C-51.60798265 35 -51.60798265 35 -55 35 C-55 31 -55 31 -54 29 C-51.03 29 -48.06 29 -45 29 C-45 28.67 -45 28.34 -45 28 C-43.02 28 -41.04 28 -39 28 C-38.91492188 27.37222656 -38.82984375 26.74445313 -38.7421875 26.09765625 C-38 24 -38 24 -36.2578125 23.05859375 C-35.55398438 22.85363281 -34.85015625 22.64867187 -34.125 22.4375 C-30.89253754 21.47730359 -29.31234076 20.43404291 -27 18 C-24.3125 16.8125 -24.3125 16.8125 -22 16 C-22.495 14.515 -22.495 14.515 -23 13 C-20.69 13 -18.38 13 -16 13 C-16 12.01 -16 11.02 -16 10 C-15.34 10 -14.68 10 -14 10 C-14 9.34 -14 8.68 -14 8 C-14.54140625 8.31710937 -15.0828125 8.63421875 -15.640625 8.9609375 C-18.4157149 10.18307974 -20.73208098 10.40943436 -23.75 10.625 C-25.22726562 10.73714844 -25.22726562 10.73714844 -26.734375 10.8515625 C-27.48203125 10.90054687 -28.2296875 10.94953125 -29 11 C-29 11.33 -29 11.66 -29 12 C-40.85105258 12.24949584 -52.26207161 11.66411137 -64 10 C-64 9.34 -64 8.68 -64 8 C-66.31 7.67 -68.62 7.34 -71 7 C-71 6.34 -71 5.68 -71 5 C-70.31035156 5.13277344 -69.62070312 5.26554687 -68.91015625 5.40234375 C-67.50056641 5.66724609 -67.50056641 5.66724609 -66.0625 5.9375 C-65.14597656 6.11152344 -64.22945313 6.28554688 -63.28515625 6.46484375 C-44.42854799 9.5366099 -26.20065019 9.14653446 -8.39135742 2.03271484 C-5.43532422 0.8555367 -3.21457825 0 0 0 Z " fill="#6EBDD5" transform="translate(359,367)"/>
<path d="M0 0 C0.33 1.32 0.66 2.64 1 4 C2.32 4 3.64 4 5 4 C6.77409808 2.07977297 6.77409808 2.07977297 8 0 C8.99 0.33 9.98 0.66 11 1 C10.6875 2.9375 10.6875 2.9375 10 5 C9.01 5.33 8.02 5.66 7 6 C7.33 7.65 7.66 9.3 8 11 C8.99 11 9.98 11 11 11 C10.67 13.97 10.34 16.94 10 20 C10.66 20 11.32 20 12 20 C12 20.66 12 21.32 12 22 C12.66 22 13.32 22 14 22 C14 22.66 14 23.32 14 24 C14.66 24 15.32 24 16 24 C17.5078125 25.6796875 17.5078125 25.6796875 19.125 27.875 C19.66382813 28.59429687 20.20265625 29.31359375 20.7578125 30.0546875 C22 32 22 32 22 34 C22.66 34 23.32 34 24 34 C24.5775 35.11375 25.155 36.2275 25.75 37.375 C27.42260202 40.33192143 28.64982242 41.92315721 32 43 C31.67 45.64 31.34 48.28 31 51 C28.78861237 48.17665604 26.87519288 45.2291858 24.99389648 42.17797852 C14.35123943 25.02850822 0.59549275 12.85529226 -18 5 C-18 4.67 -18 4.34 -18 4 C-15.36 4 -12.72 4 -10 4 C-10 3.34 -10 2.68 -10 2 C-6.49223216 0.39644899 -3.85645121 -0.22036864 0 0 Z " fill="#3EBDE6" transform="translate(262,144)"/>
<path d="M0 0 C2.31 0.66 4.62 1.32 7 2 C6.125 3.16666667 5.25 4.33333333 4.375 5.5 C3.82585937 6.23476562 3.27671875 6.96953125 2.7109375 7.7265625 C1.64293187 9.14569326 0.56621492 10.55835925 -0.5234375 11.9609375 C-11.21718152 25.82319826 -18.34535671 42.25368382 -23.24609375 59.015625 C-24 61 -24 61 -26 62 C-27.29037976 57.46142291 -26.72599984 53.43859143 -25.9375 48.875 C-25.80537109 48.09527832 -25.67324219 47.31555664 -25.53710938 46.51220703 C-23.36795465 34.63158555 -19.2889011 23.2583654 -15 12 C-14.67 12 -14.34 12 -14 12 C-14 15.63 -14 19.26 -14 23 C-12.02 22.34 -10.04 21.68 -8 21 C-7.9175 20.29875 -7.835 19.5975 -7.75 18.875 C-6.8323616 15.35738613 -5.0199043 12.99727735 -3 10 C-3 9.01 -3 8.02 -3 7 C-2.01 6.67 -1.02 6.34 0 6 C-0.66 4.68 -1.32 3.36 -2 2 C-1.34 1.34 -0.68 0.68 0 0 Z " fill="#60BCDD" transform="translate(119,178)"/>
<path d="M0 0 C-0.33 0.99 -0.66 1.98 -1 3 C-17.71739006 4.24756642 -17.71739006 4.24756642 -23.3125 3.4375 C-27.55705951 2.92668474 -27.55705951 2.92668474 -31 5 C-31.63912205 7.54337003 -31.63912205 7.54337003 -32 10 C-30.81410278 9.99214478 -30.81410278 9.99214478 -29.60424805 9.98413086 C-25.96534036 9.96313358 -22.3264455 9.95026823 -18.6875 9.9375 C-16.82254883 9.92493164 -16.82254883 9.92493164 -14.91992188 9.91210938 C5.70412658 9.85797801 5.70412658 9.85797801 12 14 C14.97026739 14.82985324 17.96856578 15.43862329 21 16 C20.67 16.66 20.34 17.32 20 18 C18.783125 17.731875 17.56625 17.46375 16.3125 17.1875 C15.47332031 17.00832031 14.63414062 16.82914063 13.76953125 16.64453125 C11.96006101 16.22342746 10.16301848 15.74352584 8.38671875 15.19921875 C-7.16143671 10.75989426 -25.27048105 11.84846847 -41 15 C-41 14.34 -41 13.68 -41 13 C-39.35 12.34 -37.7 11.68 -36 11 C-36 10.34 -36 9.68 -36 9 C-35.34 8.67 -34.68 8.34 -34 8 C-34 7.01 -34 6.02 -34 5 C-36.97 4.505 -36.97 4.505 -40 4 C-40 2.68 -40 1.36 -40 0 C-26.56418261 -0.83429956 -13.42409627 -1.07724229 0 0 Z " fill="#41BDE7" transform="translate(224,130)"/>
<path d="M0 0 C5.45918802 0.334236 10.17758426 1.67080737 15.3125 3.5 C20.80674798 5.44864486 25.88650572 6.59115762 31.73046875 6.76171875 C34 7 34 7 35.85449219 7.9753418 C38.20487369 9.09784421 40.01233343 9.39252614 42.59765625 9.6328125 C43.48259766 9.71660156 44.36753906 9.80039062 45.27929688 9.88671875 C46.19775391 9.96535156 47.11621094 10.04398437 48.0625 10.125 C48.95388672 10.21136719 49.84527344 10.29773438 50.76367188 10.38671875 C61.31862817 11.34556842 71.63928123 11.0212976 82.1875 10.125 C83.21552734 10.04636719 84.24355469 9.96773438 85.30273438 9.88671875 C91.05875959 9.40797065 96.48258947 8.75052978 102 7 C102.33 6.34 102.66 5.68 103 5 C105.97 5.33 108.94 5.66 112 6 C85.10667462 19.44666269 44.62051171 16.38672078 16.69140625 7.3203125 C2.54159247 2.54159247 2.54159247 2.54159247 0 0 Z " fill="#6BB9D2" transform="translate(186,398)"/>
<path d="M0 0 C0.66 1.32 1.32 2.64 2 4 C2.66 4 3.32 4 4 4 C4.61875 5.8253125 4.61875 5.8253125 5.25 7.6875 C6.61762771 11.39121906 8.47610698 13.95392221 11 17 C11 17.99 11 18.98 11 20 C12.32 20 13.64 20 15 20 C15.103125 20.94875 15.20625 21.8975 15.3125 22.875 C15.68539295 26.29107501 15.68539295 26.29107501 19 28 C19 28.99 19 29.98 19 31 C19.99 31.66 20.98 32.32 22 33 C22 33.66 22 34.32 22 35 C22.66 35 23.32 35 24 35 C25.7265625 36.6796875 25.7265625 36.6796875 27.625 38.875 C28.25664062 39.59429687 28.88828125 40.31359375 29.5390625 41.0546875 C31 43 31 43 31 45 C31.99 45 32.98 45 34 45 C35.68359375 46.64453125 35.68359375 46.64453125 37.4375 48.8125 C40.76741172 52.90225735 43.65406855 56.04536938 49 57 C49.33 56.01 49.66 55.02 50 54 C50.66 54 51.32 54 52 54 C53.125 57.75 53.125 57.75 52 60 C52.556875 60.226875 53.11375 60.45375 53.6875 60.6875 C56.66159588 62.37550036 58.72008865 64.46676517 61 67 C61 67.66 61 68.32 61 69 C34.73182748 59.63195998 12.0999094 28.86732559 -0.25 5.09375 C-1 3 -1 3 0 0 Z " fill="#77BAD0" transform="translate(108,320)"/>
<path d="M0 0 C4.875 0.875 4.875 0.875 6 2 C7.66617115 2.04063832 9.33388095 2.042721 11 2 C11.33 1.34 11.66 0.68 12 0 C13.66611905 -0.042721 15.33382885 -0.04063832 17 0 C17.33 0.33 17.66 0.66 18 1 C20.32817964 1.36760731 22.6618385 1.70241581 25 2 C24.67 3.32 24.34 4.64 24 6 C22.35 6.33 20.7 6.66 19 7 C18.34 6.01 17.68 5.02 17 4 C15.68 4 14.36 4 13 4 C13 4.66 13 5.32 13 6 C13.763125 6.28875 14.52625 6.5775 15.3125 6.875 C18 8 18 8 21 10 C23.62531524 10.16713569 23.62531524 10.16713569 26 10 C26.33 10.99 26.66 11.98 27 13 C30.51190809 14.22969878 30.51190809 14.22969878 34 15 C34 15.66 34 16.32 34 17 C36.31 17.66 38.62 18.32 41 19 C41 19.66 41 20.32 41 21 C41.99 21.33 42.98 21.66 44 22 C33.24411873 20.4453151 23.94706412 15.62909217 14.5 10.5 C13.63938965 10.0373877 12.7787793 9.57477539 11.89208984 9.09814453 C7.23354727 6.51311551 3.53491753 3.99851327 0 0 Z " fill="#63BBD5" transform="translate(243,322)"/>
<path d="M0 0 C6.9814688 0.61240954 13.05171552 1.60187148 18 7 C21.67117538 9.50709011 21.67117538 9.50709011 26 10 C26 11.32 26 12.64 26 14 C26.66 14 27.32 14 28 14 C28 14.66 28 15.32 28 16 C28.66 16 29.32 16 30 16 C30 16.66 30 17.32 30 18 C30.66 18 31.32 18 32 18 C32 18.66 32 19.32 32 20 C32.66 20 33.32 20 34 20 C35.5078125 21.6796875 35.5078125 21.6796875 37.125 23.875 C37.66382813 24.59429687 38.20265625 25.31359375 38.7578125 26.0546875 C40 28 40 28 40 30 C40.66 30 41.32 30 42 30 C42.5775 31.11375 43.155 32.2275 43.75 33.375 C45.42260202 36.33192143 46.64982242 37.92315721 50 39 C49.67 41.64 49.34 44.28 49 47 C46.78861237 44.17665604 44.87519288 41.2291858 42.99389648 38.17797852 C32.35123943 21.02850822 18.59549275 8.85529226 0 1 C0 0.67 0 0.34 0 0 Z " fill="#77C0D3" transform="translate(244,148)"/>
<path d="M0 0 C-0.56589844 0.33773437 -1.13179687 0.67546875 -1.71484375 1.0234375 C-2.44832031 1.46945313 -3.18179688 1.91546875 -3.9375 2.375 C-4.66839844 2.81585938 -5.39929688 3.25671875 -6.15234375 3.7109375 C-8.13772272 4.8773984 -8.13772272 4.8773984 -9 7 C-9.66 7 -10.32 7 -11 7 C-11.2475 7.515625 -11.495 8.03125 -11.75 8.5625 C-13 11 -13 11 -15 14.25 C-19.16189191 21.56436974 -20.39097575 30.16933455 -18.4296875 38.390625 C-17.70341479 40.63824792 -16.89518019 42.81447 -16 45 C-15.71382812 45.69867188 -15.42765625 46.39734375 -15.1328125 47.1171875 C-14.44270349 48.75373173 -13.72454191 50.37840619 -13 52 C-14.98 52.495 -14.98 52.495 -17 53 C-20.85499273 46.03152731 -21.56917422 40.19699529 -21.375 32.3125 C-21.37371094 31.30638672 -21.37242187 30.30027344 -21.37109375 29.26367188 C-21.30962787 24.08346424 -20.90326326 19.87663439 -19 15 C-19.020625 13.948125 -19.04125 12.89625 -19.0625 11.8125 C-19 9 -19 9 -17.6875 7.125 C-16 6 -16 6 -13 6 C-12.91363281 5.37738281 -12.82726562 4.75476563 -12.73828125 4.11328125 C-12 2 -12 2 -10.29296875 0.91796875 C-9.59816406 0.67691406 -8.90335938 0.43585938 -8.1875 0.1875 C-7.50042969 -0.06644531 -6.81335938 -0.32039062 -6.10546875 -0.58203125 C-3.73131543 -1.05333812 -2.27685106 -0.75212833 0 0 Z " fill="#60B3CE" transform="translate(233,228)"/>
<path d="M0 0 C0.66 0.33 1.32 0.66 2 1 C0.125 6.75 0.125 6.75 -1 9 C-1.66 9 -2.32 9 -3 9 C-3 9.66 -3 10.32 -3 11 C-15.06801191 21.36401797 -34.58430869 33 -51 33 C-51 32.34 -51 31.68 -51 31 C-48.75194998 30.32678716 -46.50147776 29.66165877 -44.25 29 C-42.99703125 28.62875 -41.7440625 28.2575 -40.453125 27.875 C-37 27 -37 27 -33 27 C-32.67 26.01 -32.34 25.02 -32 24 C-28.535 23.505 -28.535 23.505 -25 23 C-25 22.34 -25 21.68 -25 21 C-24.236875 20.7525 -23.47375 20.505 -22.6875 20.25 C-19.89180331 19.22075291 -19.89180331 19.22075291 -18.5 16.875 C-18.005 16.25625 -17.51 15.6375 -17 15 C-14.3125 14.75 -14.3125 14.75 -12 15 C-12 14.34 -12 13.68 -12 13 C-10.36935236 11.94228261 -8.69719127 10.94726954 -7 10 C-3.87525373 8.36526484 -3.87525373 8.36526484 -3.3125 5.875 C-3.209375 5.25625 -3.10625 4.6375 -3 4 C-2.01 4 -1.02 4 0 4 C0 2.68 0 1.36 0 0 Z " fill="#69BBD6" transform="translate(393,316)"/>
<path d="M0 0 C4.25034377 3.13433172 8.4201081 6.33369055 12.5 9.6875 C22.92544827 18.04389777 33.7855562 25.51738034 46 31 C45.34 31.66 44.68 32.32 44 33 C41.375 32.625 41.375 32.625 39 32 C39 31.34 39 30.68 39 30 C38.34 30 37.68 30 37 30 C37 29.34 37 28.68 37 28 C36.21625 27.855625 35.4325 27.71125 34.625 27.5625 C32 27 32 27 30 26 C30 25.34 30 24.68 30 24 C28.88625 23.9175 27.7725 23.835 26.625 23.75 C25.42875 23.5025 24.2325 23.255 23 23 C21.8125 21 21.8125 21 21 19 C18.94999129 18.19471111 18.94999129 18.19471111 17 18 C17 17.34 17 16.68 17 16 C14.66785852 14.79371992 12.50357861 13.8345262 10 13 C9.34 12.01 8.68 11.02 8 10 C4.94570927 8.78715124 4.94570927 8.78715124 2 8 C2.66 7.67 3.32 7.34 4 7 C4 6.34 4 5.68 4 5 C3.34 5 2.68 5 2 5 C2 4.34 2 3.68 2 3 C1.34 3 0.68 3 0 3 C0 2.01 0 1.02 0 0 Z M1 9 C1.99 9.495 1.99 9.495 3 10 C2.01 10.495 2.01 10.495 1 11 C1 10.34 1 9.68 1 9 Z " fill="#6BBFD8" transform="translate(226,334)"/>
<path d="M0 0 C0.33 0 0.66 0 1 0 C1.43692732 4.66055811 0.39937639 8.98854259 -2 13 C-4.6875 14 -4.6875 14 -7 14 C-7.33 14.99 -7.66 15.98 -8 17 C-8.66 17 -9.32 17 -10 17 C-10 17.66 -10 18.32 -10 19 C-16.93446716 23.98414827 -23.81145437 25.47431152 -32.125 25.25 C-32.89714844 25.24484375 -33.66929687 25.2396875 -34.46484375 25.234375 C-38.71482952 25.17645356 -42.85121906 25.008115 -47 24 C-47.33 23.34 -47.66 22.68 -48 22 C-48.99 21.67 -49.98 21.34 -51 21 C-51 20.34 -51 19.68 -51 19 C-51.66 19 -52.32 19 -53 19 C-52.67 18.34 -52.34 17.68 -52 17 C-51.46890625 17.27714844 -50.9378125 17.55429687 -50.390625 17.83984375 C-49.68421875 18.20207031 -48.9778125 18.56429688 -48.25 18.9375 C-47.55390625 19.29714844 -46.8578125 19.65679687 -46.140625 20.02734375 C-37.77929069 23.82656317 -26.74908724 23.03348976 -18.2421875 20.03515625 C-10.17157494 16.30917659 -4.31380459 10.04830093 -0.625 2 C-0.41875 1.34 -0.2125 0.68 0 0 Z " fill="#76BCD2" transform="translate(281,271)"/>
<path d="M0 0 C-3.00272818 2.00181879 -5.60180976 2.86726992 -9 4 C-9.99 4.66 -10.98 5.32 -12 6 C-15.1875 6.125 -15.1875 6.125 -18 6 C-18 6.66 -18 7.32 -18 8 C-19.45706726 8.50367757 -20.91570096 9.00282556 -22.375 9.5 C-23.18710938 9.7784375 -23.99921875 10.056875 -24.8359375 10.34375 C-27 11 -27 11 -29 11 C-29.185625 11.639375 -29.37125 12.27875 -29.5625 12.9375 C-31 15 -31 15 -34.625 15.75 C-36.295625 15.87375 -36.295625 15.87375 -38 16 C-38 16.66 -38 17.32 -38 18 C-39.4540625 18.680625 -39.4540625 18.680625 -40.9375 19.375 C-44.07079582 20.65786221 -44.07079582 20.65786221 -45 23 C-46.84765625 23.6328125 -46.84765625 23.6328125 -49.0625 24.125 C-49.79597656 24.29257813 -50.52945313 24.46015625 -51.28515625 24.6328125 C-51.85105469 24.75398438 -52.41695312 24.87515625 -53 25 C-44.32737006 15.13114524 -14.03749116 -4.51205073 0 0 Z " fill="#72BED5" transform="translate(209,102)"/>
<path d="M0 0 C1.01566544 0.00280975 1.01566544 0.00280975 2.05184937 0.00567627 C3.48237037 0.01237699 4.91287367 0.02625215 6.34326172 0.046875 C8.4959485 0.07773098 10.64789612 0.08782599 12.80078125 0.09375 C34.64668804 0.21513193 34.64668804 0.21513193 40.8984375 4.328125 C43.86870489 5.15797824 46.86700328 5.76674829 49.8984375 6.328125 C49.5684375 6.988125 49.2384375 7.648125 48.8984375 8.328125 C47.6815625 8.06 46.4646875 7.791875 45.2109375 7.515625 C44.37175781 7.33644531 43.53257812 7.15726563 42.66796875 6.97265625 C40.85849851 6.55155246 39.06145598 6.07165084 37.28515625 5.52734375 C21.73700079 1.08801926 3.62795645 2.17659347 -12.1015625 5.328125 C-12.1015625 4.668125 -12.1015625 4.008125 -12.1015625 3.328125 C-8.10811887 0.21189233 -4.97634797 -0.03737255 0 0 Z " fill="#59AECA" transform="translate(195.1015625,139.671875)"/>
<path d="M0 0 C11.49970011 2.78218551 24.70359525 8.54573997 34 16 C34 16.99 34 17.98 34 19 C34.66 19 35.32 19 36 19 C36 19.99 36 20.98 36 22 C34.68 22.33 33.36 22.66 32 23 C32 22.34 32 21.68 32 21 C31.21625 21.04125 30.4325 21.0825 29.625 21.125 C27 21 27 21 25 19 C23.68252676 18.30251417 22.35085807 17.63040043 21 17 C22.32 17 23.64 17 25 17 C24.67 15.35 24.34 13.7 24 12 C23.401875 11.855625 22.80375 11.71125 22.1875 11.5625 C20.43849596 11.1127561 18.71322977 10.57107659 17 10 C17 9.34 17 8.68 17 8 C15.02 8 13.04 8 11 8 C10.67 7.01 10.34 6.02 10 5 C9.0925 4.87625 8.185 4.7525 7.25 4.625 C4.41029677 4.07890323 2.47409409 3.42736197 0 2 C0 1.34 0 0.68 0 0 Z " fill="#4EBBDD" transform="translate(304,105)"/>
<path d="M0 0 C23.62527314 -0.68494324 45.64957036 0.98013995 68 9 C64.69930328 10.08665302 62.56615159 9.88507311 59.21875 9.0390625 C58.29932617 8.81508789 57.37990234 8.59111328 56.43261719 8.36035156 C54.98097168 7.99635254 54.98097168 7.99635254 53.5 7.625 C46.30610868 5.89178722 39.45443496 4.44035286 32.046875 4.140625 C30 4 30 4 28 3 C25.89625004 2.84558791 23.78804881 2.75007361 21.6796875 2.68359375 C20.42285156 2.64169922 19.16601562 2.59980469 17.87109375 2.55664062 C16.55238281 2.51732422 15.23367187 2.47800781 13.875 2.4375 C12.53514249 2.39430488 11.19529844 2.35069027 9.85546875 2.30664062 C6.57042185 2.20029019 3.28529719 2.09826192 0 2 C0 1.34 0 0.68 0 0 Z " fill="#85C3D8" transform="translate(236,95)"/>
<path d="M0 0 C2 2 2 2 2.23706055 4.20166016 C2.1423538 10.98999513 1.67140225 17.64087064 0.8125 24.375 C0.68302979 25.40069092 0.55355957 26.42638184 0.42016602 27.4831543 C-3.10602496 53.65903744 -3.10602496 53.65903744 -8 61 C-8.30263201 54.90252546 -8.31744027 50.06801691 -5.80078125 44.390625 C-3.95039941 38.86655824 -3.63933692 32.77659713 -3 27 C-2.34 27 -1.68 27 -1 27 C-1.01160156 26.14019531 -1.02320313 25.28039062 -1.03515625 24.39453125 C-1.09765271 16.2074948 -0.75826597 8.15135917 0 0 Z " fill="#7BBBD2" transform="translate(407,246)"/>
<path d="M0 0 C0 0.33 0 0.66 0 1 C-1.155 0.87625 -2.31 0.7525 -3.5 0.625 C-4.34175781 0.53605469 -5.18351562 0.44710938 -6.05078125 0.35546875 C-8.07495592 0.11149538 -10.09377235 -0.18023167 -12.10546875 -0.51171875 C-26.31508604 -2.69662173 -40.66367952 -2.18200407 -55 -2 C-55.33 0.64 -55.66 3.28 -56 6 C-56.33 6 -56.66 6 -57 6 C-57.33 3.36 -57.66 0.72 -58 -2 C-41.23816432 -11.17910049 -17.16645754 -5.15754988 0 0 Z " fill="#68BAD5" transform="translate(152,283)"/>
<path d="M0 0 C0 0.33 0 0.66 0 1 C-3.3 1 -6.6 1 -10 1 C-10 1.66 -10 2.32 -10 3 C-9.34 3 -8.68 3 -8 3 C-8 4.32 -8 5.64 -8 7 C-11.4019487 9.09350689 -14.05272412 9.17942163 -18 9 C-16.68 8.67 -15.36 8.34 -14 8 C-14 7.34 -14 6.68 -14 6 C-17.58327753 4.99782936 -17.58327753 4.99782936 -21 6 C-21.33 5.34 -21.66 4.68 -22 4 C-26.29 4 -30.58 4 -35 4 C-30.85604856 1.92802428 -27.07234531 1.07040586 -22.5625 0.3125 C-21.76859863 0.17803467 -20.97469727 0.04356934 -20.15673828 -0.0949707 C-13.24955498 -1.15905781 -6.93401502 -1.01682552 0 0 Z " fill="#4FBADE" transform="translate(243,97)"/>
<path d="M0 0 C0.125 2.875 0.125 2.875 0 6 C-0.66 6.66 -1.32 7.32 -2 8 C-2 8.66 -2 9.32 -2 10 C-1.34 10 -0.68 10 0 10 C0.33 11.65 0.66 13.3 1 15 C0.01 15 -0.98 15 -2 15 C-2.99 17.475 -2.99 17.475 -4 20 C-4.66 20 -5.32 20 -6 20 C-6 20.99 -6 21.98 -6 23 C-7.65 22.67 -9.3 22.34 -11 22 C-11 21.34 -11 20.68 -11 20 C-10.01 20 -9.02 20 -8 20 C-7.67 19.01 -7.34 18.02 -7 17 C-6.34 16.67 -5.68 16.34 -5 16 C-4.34786708 13.97536745 -4.34786708 13.97536745 -4 12 C-5.175625 12.7115625 -5.175625 12.7115625 -6.375 13.4375 C-7.88948678 14.33898023 -9.4235897 15.21179485 -11 16 C-11 14.35 -11 12.7 -11 11 C-10.34 11 -9.68 11 -9 11 C-9 10.34 -9 9.68 -9 9 C-8.34 8.67 -7.68 8.34 -7 8 C-5.9935725 6.33720673 -4.99414593 4.67016516 -4 3 C-1.31034483 0 -1.31034483 0 0 0 Z " fill="#34BFEA" transform="translate(130,156)"/>
<path d="M0 0 C0.33 0 0.66 0 1 0 C1.33 2.97 1.66 5.94 2 9 C2.33 8.34 2.66 7.68 3 7 C3.66 7 4.32 7 5 7 C3.38151704 12.54207803 1.69595391 18.06321529 -0.0625 23.5625 C-0.38347656 24.57441406 -0.70445313 25.58632812 -1.03515625 26.62890625 C-2 29 -2 29 -4 30 C-5.45045802 25.15216046 -4.56927094 20.98471497 -3.6875 16.125 C-3.55666016 15.34769531 -3.42582031 14.57039062 -3.29101562 13.76953125 C-2.47380954 9.07158322 -1.39242248 4.56033563 0 0 Z " fill="#7CB8CC" transform="translate(97,210)"/>
<path d="M0 0 C0.66 0.33 1.32 0.66 2 1 C1.01 4.3 0.02 7.6 -1 11 C-1.66 11 -2.32 11 -3 11 C-3.33 11.99 -3.66 12.98 -4 14 C-4.99 14 -5.98 14 -7 14 C-7.061875 14.763125 -7.12375 15.52625 -7.1875 16.3125 C-8 19 -8 19 -10.5625 20.8125 C-11.366875 21.204375 -12.17125 21.59625 -13 22 C-12.25 17.25 -12.25 17.25 -10 15 C-9.35232207 12.42938689 -9.35232207 12.42938689 -9 10 C-9.66 10 -10.32 10 -11 10 C-11 11.65 -11 13.3 -11 15 C-11.99 14.67 -12.98 14.34 -14 14 C-13.67 12.35 -13.34 10.7 -13 9 C-7.375 6.875 -7.375 6.875 -4 8 C-2.68 5.36 -1.36 2.72 0 0 Z " fill="#4CBAE2" transform="translate(397,306)"/>
<path d="M0 0 C10.40079313 3.11715165 19.13852905 9.95167385 27.75 16.375 C28.80550049 17.16076416 28.80550049 17.16076416 29.88232422 17.96240234 C30.53475098 18.45691895 31.18717773 18.95143555 31.859375 19.4609375 C32.44170898 19.90228027 33.02404297 20.34362305 33.62402344 20.79833984 C35 22 35 22 36 24 C35.01 24.33 34.02 24.66 33 25 C31.5 23.625 31.5 23.625 30 22 C30 21.34 30 20.68 30 20 C29.195625 19.835 28.39125 19.67 27.5625 19.5 C23.9897861 17.99569941 22.27603482 16.56322498 19.5 13.9375 C16.09116615 10.74784667 13.86724761 9 9 9 C9 8.01 9 7.02 9 6 C7.35 6 5.7 6 4 6 C3.67 5.01 3.34 4.02 3 3 C2.01 3 1.02 3 0 3 C0 2.01 0 1.02 0 0 Z " fill="#71BDD6" transform="translate(167,290)"/>
<path d="M0 0 C0.33 0.66 0.66 1.32 1 2 C0.236875 2.7425 -0.52625 3.485 -1.3125 4.25 C-3.95571199 6.823554 -3.95571199 6.823554 -5.6875 9.3125 C-6.3371875 10.1478125 -6.3371875 10.1478125 -7 11 C-7.66 11 -8.32 11 -9 11 C-9 11.66 -9 12.32 -9 13 C-9.66 13 -10.32 13 -11 13 C-11.226875 14.0725 -11.45375 15.145 -11.6875 16.25 C-13.15981596 20.45661703 -14.52375442 21.41509944 -18 24 C-18.63292383 26.11280345 -18.63292383 26.11280345 -19 28 C-19.99 28.33 -20.98 28.66 -22 29 C-19.11202018 17.44808074 -11.50404556 8.04256613 -2 1 C-1.34 0.67 -0.68 0.34 0 0 Z " fill="#6EBDD8" transform="translate(220,208)"/>
<path d="M0 0 C0.66 0 1.32 0 2 0 C3.44394384 5.93090981 4.61877861 11.02297129 3 17 C0 19 0 19 -3 19 C-3.55353075 5.18223235 -3.55353075 5.18223235 0 0 Z " fill="#5BBADD" transform="translate(108,182)"/>
<path d="M0 0 C1.82764963 1.37073722 3.3925499 2.80055954 4.953125 4.46484375 C3.963125 4.79484375 2.973125 5.12484375 1.953125 5.46484375 C1.953125 4.80484375 1.953125 4.14484375 1.953125 3.46484375 C0.839375 3.03171875 0.839375 3.03171875 -0.296875 2.58984375 C-2.61427297 1.64181731 -4.82604615 0.61638464 -7.046875 -0.53515625 C-7.046875 -1.19515625 -7.046875 -1.85515625 -7.046875 -2.53515625 C-8.036875 -2.20515625 -9.026875 -1.87515625 -10.046875 -1.53515625 C-11.95203092 -2.23371342 -13.85796335 -2.9367272 -15.71875 -3.74609375 C-22.12869366 -5.91859143 -28.80531748 -5.66016723 -35.484375 -5.59765625 C-36.40669922 -5.59314453 -37.32902344 -5.58863281 -38.27929688 -5.58398438 C-40.53522548 -5.57229563 -42.79101467 -5.5559108 -45.046875 -5.53515625 C-45.046875 -5.86515625 -45.046875 -6.19515625 -45.046875 -6.53515625 C-29.43130101 -10.76988818 -13.73643922 -8.80720678 0 0 Z " fill="#84C6DC" transform="translate(279.046875,207.53515625)"/>
<path d="M0 0 C0 3.33910669 -0.52569155 4.1657978 -2.3125 6.875 C-3.84956835 9.22836453 -5.30766384 11.54695794 -6.6875 14 C-7.3371875 14.99 -7.3371875 14.99 -8 16 C-8.66 16 -9.32 16 -10 16 C-10 16.66 -10 17.32 -10 18 C-10.66 18 -11.32 18 -12 18 C-12.18175781 18.63808594 -12.36351563 19.27617187 -12.55078125 19.93359375 C-12.92783203 21.17302734 -12.92783203 21.17302734 -13.3125 22.4375 C-13.55613281 23.26121094 -13.79976562 24.08492187 -14.05078125 24.93359375 C-14.36402344 25.61550781 -14.67726563 26.29742187 -15 27 C-15.99 27.33 -16.98 27.66 -18 28 C-18.165 28.66 -18.33 29.32 -18.5 30 C-18.665 30.66 -18.83 31.32 -19 32 C-20.485 32.495 -20.485 32.495 -22 33 C-17.40521523 20.84250727 -9.18498152 9.18498152 0 0 Z " fill="#71BCD3" transform="translate(131,149)"/>
<path d="M0 0 C1.99609375 0.171875 1.99609375 0.171875 4.4375 0.75 C14.1561145 2.99152559 23.74208148 4.38198649 33.6875 5.125 C34.78255859 5.21136719 35.87761719 5.29773438 37.00585938 5.38671875 C39.67022655 5.59614499 42.33487497 5.80049251 45 6 C37.53241065 10.9783929 25.56102474 7.56046138 17.1875 6.125 C16.10791016 5.95097656 15.02832031 5.77695312 13.91601562 5.59765625 C8.48831786 4.69914098 3.24633254 3.66146337 -2 2 C-1.34 1.34 -0.68 0.68 0 0 Z " fill="#6DBDD4" transform="translate(289,343)"/>
<path d="M0 0 C0.33 0 0.66 0 1 0 C0.98428955 0.60360352 0.9685791 1.20720703 0.95239258 1.82910156 C0.62128787 16.48712112 0.65400538 28.89450942 8.109375 41.94140625 C9 44 9 44 8 47 C-0.66484185 33.56809305 -4.19804119 20.2175248 -1 4.25 C-0.67862048 2.83057379 -0.350033 1.41263316 0 0 Z " fill="#88BDD0" transform="translate(197,238)"/>
<path d="M0 0 C4.875 0.875 4.875 0.875 6 2 C7.66617115 2.04063832 9.33388095 2.042721 11 2 C11.33 1.34 11.66 0.68 12 0 C13.66611905 -0.042721 15.33382885 -0.04063832 17 0 C17.33 0.33 17.66 0.66 18 1 C20.32817964 1.36760731 22.6618385 1.70241581 25 2 C24.67 3.32 24.34 4.64 24 6 C22.35 6.33 20.7 6.66 19 7 C18.34 6.01 17.68 5.02 17 4 C15.68 4 14.36 4 13 4 C13 4.99 13 5.98 13 7 C7.53228436 6.59992325 4.04064621 4.53855408 0 1 C0 0.67 0 0.34 0 0 Z " fill="#41BCE3" transform="translate(243,322)"/>
<path d="M0 0 C0 0.99 0 1.98 0 3 C-5.34883721 8 -5.34883721 8 -8 8 C-8 8.66 -8 9.32 -8 10 C-9.98 10.99 -9.98 10.99 -12 12 C-11.67 10.68 -11.34 9.36 -11 8 C-9.68 7.67 -8.36 7.34 -7 7 C-7 6.01 -7 5.02 -7 4 C-7.515625 4.474375 -8.03125 4.94875 -8.5625 5.4375 C-11.6637288 7.42546718 -14.37691483 7.58983941 -18 8 C-18.33 8.33 -18.66 8.66 -19 9 C-20.85287502 9.07226502 -22.70833878 9.0838122 -24.5625 9.0625 C-25.57441406 9.05347656 -26.58632813 9.04445313 -27.62890625 9.03515625 C-28.41136719 9.02355469 -29.19382812 9.01195312 -30 9 C-30 8.67 -30 8.34 -30 8 C-29.3915625 7.92523438 -28.783125 7.85046875 -28.15625 7.7734375 C-21.16194634 6.72429195 -14.92934113 4.64858715 -8.39648438 2.03271484 C-5.43840611 0.85775687 -3.21585044 0 0 0 Z " fill="#89C4D1" transform="translate(359,367)"/>
<path d="M0 0 C0.66 0 1.32 0 2 0 C2 0.66 2 1.32 2 2 C2.59683594 2.0721875 3.19367188 2.144375 3.80859375 2.21875 C6.79745397 3.28429732 7.46297517 4.80426749 9.0625 7.5 C11.16386464 11.25834474 11.16386464 11.25834474 15 13 C15.99 14.485 15.99 14.485 17 16 C19.05925139 16.72382467 19.05925139 16.72382467 21 17 C21.33 18.98 21.66 20.96 22 23 C19 23 19 23 17.08984375 21.48828125 C0 4.2123412 0 4.2123412 0 0 Z " fill="#5BBBD8" transform="translate(206,285)"/>
<path d="M0 0 C1.57312496 3.67062491 2.14440048 5.44302674 1.125 9.375 C0.75375 10.24125 0.3825 11.1075 0 12 C-2.1519437 8.77208445 -2.20086443 7.71599191 -2 4 C-2.66386719 4.13277344 -3.32773438 4.26554688 -4.01171875 4.40234375 C-8.34114583 5.26822917 -12.67057292 6.13411458 -17 7 C-16.67 5.68 -16.34 4.36 -16 3 C-13.69 3 -11.38 3 -9 3 C-9 2.34 -9 1.68 -9 1 C-6.04335481 -0.4783226 -3.25770263 -0.06032783 0 0 Z " fill="#5CBAD8" transform="translate(250,220)"/>
<path d="M0 0 C7.15242388 5.77695775 12.7889442 11.25879255 16 20 C16.66 20 17.32 20 18 20 C18 21.32 18 22.64 18 24 C16.35 23.67 14.7 23.34 13 23 C12.67 21.02 12.34 19.04 12 17 C11.01 16.67 10.02 16.34 9 16 C8.08723369 13.74674597 7.54218478 11.48290011 6.94140625 9.12890625 C5.7533017 6.4421138 4.65371954 6.09932505 2 5 C1.34 4.34 0.68 3.68 0 3 C0 2.01 0 1.02 0 0 Z " fill="#69B8D1" transform="translate(284,212)"/>
<path d="M0 0 C0.66 0 1.32 0 2 0 C2.26554687 0.61488281 2.53109375 1.22976562 2.8046875 1.86328125 C3.15789062 2.67152344 3.51109375 3.47976562 3.875 4.3125 C4.22304688 5.11300781 4.57109375 5.91351563 4.9296875 6.73828125 C6.02571894 9.1961834 6.02571894 9.1961834 8 12 C8.22705078 14.63549805 8.22705078 14.63549805 8.1953125 17.76171875 C8.18564453 19.43911133 8.18564453 19.43911133 8.17578125 21.15039062 C8.15902344 22.31763672 8.14226562 23.48488281 8.125 24.6875 C8.11597656 25.86634766 8.10695313 27.04519531 8.09765625 28.25976562 C8.07406423 31.17338026 8.0411454 34.08658892 8 37 C7.67 37 7.34 37 7 37 C6.96132813 35.7625 6.96132813 35.7625 6.921875 34.5 C6.33059056 22.45929865 3.31952876 11.53647886 0 0 Z " fill="#7BC3DA" transform="translate(293,195)"/>
<path d="M0 0 C0.66 0 1.32 0 2 0 C2.66 0.99 3.32 1.98 4 3 C4.7425 2.67 5.485 2.34 6.25 2 C9 1 9 1 13 1 C13 2.32 13 3.64 13 5 C11.35 5.33 9.7 5.66 8 6 C7.67 6.99 7.34 7.98 7 9 C5.35 9.33 3.7 9.66 2 10 C2 8.68 2 7.36 2 6 C1.01 5.67 0.02 5.34 -1 5 C-0.67 3.35 -0.34 1.7 0 0 Z " fill="#38BEE9" transform="translate(140,151)"/>
<path d="M0 0 C0.66 0 1.32 0 2 0 C2 0.99 2 1.98 2 3 C1.401875 3.226875 0.80375 3.45375 0.1875 3.6875 C-2.57113756 5.34268253 -3.49330019 7.20184321 -5 10 C-6 11 -6 11 -8.5625 11.0625 C-9.366875 11.041875 -10.17125 11.02125 -11 11 C-11 11.66 -11 12.32 -11 13 C-13 12 -13 12 -14 9 C-11.69 9 -9.38 9 -7 9 C-7 8.01 -7 7.02 -7 6 C-6.34 6 -5.68 6 -5 6 C-5 5.34 -5 4.68 -5 4 C-5.79664063 4.49113281 -5.79664063 4.49113281 -6.609375 4.9921875 C-9.62694157 6.2642989 -11.98693023 6.1959363 -15.25 6.125 C-16.32765625 6.10695313 -17.4053125 6.08890625 -18.515625 6.0703125 C-19.33546875 6.04710937 -20.1553125 6.02390625 -21 6 C-21 5.67 -21 5.34 -21 5 C-20.21753906 4.93941406 -19.43507813 4.87882812 -18.62890625 4.81640625 C-17.61699219 4.73261719 -16.60507812 4.64882813 -15.5625 4.5625 C-14.55316406 4.48128906 -13.54382813 4.40007812 -12.50390625 4.31640625 C-10.06359221 4.26788532 -10.06359221 4.26788532 -9 3 C-7.2984375 2.7834375 -7.2984375 2.7834375 -5.5625 2.5625 C-1.95941003 2.35152449 -1.95941003 2.35152449 0 0 Z " fill="#49B4D4" transform="translate(350,371)"/>
<path d="M0 0 C4.0384057 -0.0744389 8.07654293 -0.12873729 12.11547852 -0.16479492 C13.48794517 -0.17983432 14.86036414 -0.20027133 16.23266602 -0.22631836 C18.21088656 -0.26291221 20.18946514 -0.27816698 22.16796875 -0.29296875 C23.35672607 -0.3086792 24.5454834 -0.32438965 25.77026367 -0.34057617 C29.31326914 0.03303428 31.09648421 1.00829005 34 3 C36.42095205 3.76305262 36.42095205 3.76305262 38.8125 4.1875 C39.60269531 4.34605469 40.39289063 4.50460938 41.20703125 4.66796875 C41.79871094 4.77753906 42.39039063 4.88710937 43 5 C42.67 5.66 42.34 6.32 42 7 C40.783125 6.731875 39.56625 6.46375 38.3125 6.1875 C37.47976562 6.00703125 36.64703125 5.8265625 35.7890625 5.640625 C33.92017749 5.21135729 32.0600821 4.74198332 30.2109375 4.234375 C20.21060595 1.5986287 10.28297864 1.29731444 0 1 C0 0.67 0 0.34 0 0 Z " fill="#82C5DC" transform="translate(202,141)"/>
<path d="M0 0 C0.74121094 0.34933594 1.48242188 0.69867188 2.24609375 1.05859375 C11.60466141 5.10213645 19.90502605 5.86701232 30 6 C30 6.66 30 7.32 30 8 C27.12493579 8.02712325 24.25013092 8.04689851 21.375 8.0625 C20.16263672 8.07506836 20.16263672 8.07506836 18.92578125 8.08789062 C14.52595641 8.10577609 10.29684487 8.0775999 6 7 C5.67 6.34 5.34 5.68 5 5 C4.01 4.67 3.02 4.34 2 4 C2 3.34 2 2.68 2 2 C1.34 2 0.68 2 0 2 C0 1.34 0 0.68 0 0 Z " fill="#63B5CD" transform="translate(228,288)"/>
<path d="M0 0 C0.99 0.33 1.98 0.66 3 1 C5.17529209 12.86522957 4.90090369 24.00824146 4 36 C3.67 36 3.34 36 3 36 C2.970271 34.94872925 2.970271 34.94872925 2.93994141 33.8762207 C2.84443834 30.68794838 2.73486129 27.50030853 2.625 24.3125 C2.5940625 23.20970703 2.563125 22.10691406 2.53125 20.97070312 C2.49257813 19.90400391 2.45390625 18.83730469 2.4140625 17.73828125 C2.3826416 16.75899658 2.3512207 15.77971191 2.31884766 14.77075195 C1.98446794 11.86502809 1.10969874 9.68926743 0 7 C-0.07646165 4.6679198 -0.09143299 2.33154122 0 0 Z " fill="#68B5D3" transform="translate(403,223)"/>
<path d="M0 0 C10.43405122 2.52436723 19.89177696 7.39493967 29 13 C27 14 27 14 24.6171875 13.22265625 C23.71226562 12.83980469 22.80734375 12.45695312 21.875 12.0625 C20.96492188 11.68222656 20.05484375 11.30195312 19.1171875 10.91015625 C18.41851562 10.60980469 17.71984375 10.30945313 17 10 C17 9.34 17 8.68 17 8 C15.02 8 13.04 8 11 8 C10.67 7.01 10.34 6.02 10 5 C9.0925 4.87625 8.185 4.7525 7.25 4.625 C4.41029677 4.07890323 2.47409409 3.42736197 0 2 C0 1.34 0 0.68 0 0 Z " fill="#6BB7D0" transform="translate(304,105)"/>
<path d="M0 0 C0.66 0.33 1.32 0.66 2 1 C0.125 6.75 0.125 6.75 -1 9 C-1.66 9 -2.32 9 -3 9 C-3 9.66 -3 10.32 -3 11 C-4.73548169 12.44526736 -6.53975963 13.8087222 -8.375 15.125 C-9.37273437 15.84945313 -10.37046875 16.57390625 -11.3984375 17.3203125 C-14 19 -14 19 -16 19 C-16 18.01 -16 17.02 -16 16 C-15.01 15.67 -14.02 15.34 -13 15 C-12.67 14.34 -12.34 13.68 -12 13 C-10.35666496 11.96210419 -8.68756133 10.96432076 -7 10 C-3.87525373 8.36526484 -3.87525373 8.36526484 -3.3125 5.875 C-3.209375 5.25625 -3.10625 4.6375 -3 4 C-2.01 4 -1.02 4 0 4 C0 2.68 0 1.36 0 0 Z " fill="#74BBD2" transform="translate(393,316)"/>
<path d="M0 0 C4.62 0 9.24 0 14 0 C10.03593459 1.9820327 6.06989059 3.60670252 1.9375 5.1875 C1.21755859 5.47302734 0.49761719 5.75855469 -0.24414062 6.05273438 C-5.65135958 8.11621347 -5.65135958 8.11621347 -9 7 C-6.66785852 5.79371992 -4.50357861 4.8345262 -2 4 C-2 3.34 -2 2.68 -2 2 C-1.34 2 -0.68 2 0 2 C0 1.34 0 0.68 0 0 Z " fill="#71BDD5" transform="translate(169,145)"/>
<path d="M0 0 C-1.24252679 0.84443568 -2.4943886 1.6751458 -3.75 2.5 C-4.44609375 2.9640625 -5.1421875 3.428125 -5.859375 3.90625 C-8 5 -8 5 -12 5 C-13.20628008 7.33214148 -14.1654738 9.49642139 -15 12 C-15.66 12 -16.32 12 -17 12 C-17.33 12.99 -17.66 13.98 -18 15 C-18.6875 12.1875 -18.6875 12.1875 -19 9 C-17.75 7.125 -17.75 7.125 -16 6 C-15.01 6 -14.02 6 -13 6 C-12.91363281 5.37738281 -12.82726562 4.75476563 -12.73828125 4.11328125 C-12 2 -12 2 -10.29296875 0.91796875 C-9.59816406 0.67691406 -8.90335938 0.43585938 -8.1875 0.1875 C-7.50042969 -0.06644531 -6.81335938 -0.32039062 -6.10546875 -0.58203125 C-3.73131543 -1.05333812 -2.27685106 -0.75212833 0 0 Z " fill="#45BADC" transform="translate(233,228)"/>
<path d="M0 0 C-0.93972656 -0.01740234 -0.93972656 -0.01740234 -1.8984375 -0.03515625 C-3.12433594 -0.04869141 -3.12433594 -0.04869141 -4.375 -0.0625 C-5.59316406 -0.07990234 -5.59316406 -0.07990234 -6.8359375 -0.09765625 C-9.04937142 -0.14466334 -9.04937142 -0.14466334 -11 1 C-12.4465242 1.15067214 -13.8987934 1.24861036 -15.3515625 1.31640625 C-16.20234375 1.35830078 -17.053125 1.40019531 -17.9296875 1.44335938 C-18.81914062 1.48267578 -19.70859375 1.52199219 -20.625 1.5625 C-21.97078125 1.62727539 -21.97078125 1.62727539 -23.34375 1.69335938 C-25.56234283 1.79956861 -27.7810488 1.90161194 -30 2 C-29 0 -29 0 -26 -1 C-5.36842105 -3.57894737 -5.36842105 -3.57894737 0 0 Z " fill="#57BBDB" transform="translate(257,203)"/>
<path d="M0 0 C2.9375 0.375 2.9375 0.375 6 1 C6.33 1.66 6.66 2.32 7 3 C8.66072849 3.68132451 10.327767 4.34742127 12 5 C14 7 14 7 14 11 C14.66 11 15.32 11 16 11 C15.67 11.66 15.34 12.32 15 13 C4.46431765 5.28295475 4.46431765 5.28295475 0 1 C0 0.67 0 0.34 0 0 Z " fill="#65BDD5" transform="translate(227,309)"/>
<path d="M0 0 C0.66 0 1.32 0 2 0 C3.125 3.75 3.125 3.75 2 6 C2.556875 6.226875 3.11375 6.45375 3.6875 6.6875 C6.66159588 8.37550036 8.72008865 10.46676517 11 13 C11 13.66 11 14.32 11 15 C8.0280615 13.87548273 5.66559313 12.77706209 3 11 C3 10.01 3 9.02 3 8 C0.05763218 5.78831775 0.05763218 5.78831775 -3 4 C-2.34 3.67 -1.68 3.34 -1 3 C-0.67 2.01 -0.34 1.02 0 0 Z " fill="#43BAE3" transform="translate(158,374)"/>
<path d="M0 0 C-0.66 0 -1.32 0 -2 0 C-2 0.66 -2 1.32 -2 2 C-8.98924344 3.21293909 -15.46329285 2.74007766 -22.5 2.0625 C-23.60859375 1.96259766 -24.7171875 1.86269531 -25.859375 1.75976562 C-28.57370457 1.514072 -31.28707161 1.26063764 -34 1 C-34 0.67 -34 0.34 -34 0 C-33.30438965 0.00523682 -32.6087793 0.01047363 -31.89208984 0.01586914 C-28.71973587 0.03674337 -25.54739639 0.04969332 -22.375 0.0625 C-20.73337891 0.07506836 -20.73337891 0.07506836 -19.05859375 0.08789062 C-17.99511719 0.09111328 -16.93164062 0.09433594 -15.8359375 0.09765625 C-14.86188965 0.10289307 -13.8878418 0.10812988 -12.88427734 0.11352539 C-1.0209769 -0.35341508 -1.0209769 -0.35341508 0 0 Z " fill="#3EBBE0" transform="translate(344,347)"/>
<path d="M0 0 C0.8723412 2.99480917 1.10829766 5.63575911 1.0625 8.75 C1.05347656 9.54921875 1.04445313 10.3484375 1.03515625 11.171875 C1.02355469 11.77515625 1.01195312 12.3784375 1 13 C1.66 13 2.32 13 3 13 C2.67 15.31 2.34 17.62 2 20 C1.67 19.01 1.34 18.02 1 17 C0.34 17 -0.32 17 -1 17 C-1 12.05 -1 7.1 -1 2 C-3.31 2.33 -5.62 2.66 -8 3 C-7.67 2.34 -7.34 1.68 -7 1 C-4.61370553 0.38812962 -2.46459429 0 0 0 Z " fill="#45BAE1" transform="translate(286,250)"/>
<path d="M0 0 C3.875 1.75 3.875 1.75 5 4 C5.039992 5.99960012 5.04346799 8.00047242 5 10 C2.125 10.125 2.125 10.125 -1 10 C-1.66 9.34 -2.32 8.68 -3 8 C-2.67 7.01 -2.34 6.02 -2 5 C-1.67 5.33 -1.34 5.66 -1 6 C-0.67 4.02 -0.34 2.04 0 0 Z " fill="#55BCDD" transform="translate(381,167)"/>
<path d="M0 0 C-2.93081576 1.84418895 -5.8706807 3.67342417 -8.8125 5.5 C-9.64587891 6.02464844 -10.47925781 6.54929688 -11.33789062 7.08984375 C-12.14033203 7.58613281 -12.94277344 8.08242187 -13.76953125 8.59375 C-14.87711792 9.28500977 -14.87711792 9.28500977 -16.00708008 9.99023438 C-18 11 -18 11 -21 11 C-17.375 6.125 -17.375 6.125 -14 5 C-13.67 4.34 -13.34 3.68 -13 3 C-11.07421875 1.89453125 -11.07421875 1.89453125 -8.6875 0.8125 C-7.51767578 0.26529297 -7.51767578 0.26529297 -6.32421875 -0.29296875 C-3.69996438 -1.09127134 -2.57202047 -0.75464442 0 0 Z " fill="#79B9CF" transform="translate(161,154)"/>
<path d="M0 0 C5.51443228 3.9102338 10.33141477 8.11866911 15 13 C15.9977038 14.00229094 16.9969925 15.00301657 18 16 C15.525 15.505 15.525 15.505 13 15 C13 14.34 13 13.68 13 13 C12.4225 12.731875 11.845 12.46375 11.25 12.1875 C8.94449957 10.97070811 6.97943808 9.69666121 5 8 C5 7.34 5 6.68 5 6 C3.68 5.67 2.36 5.34 1 5 C0.67 3.35 0.34 1.7 0 0 Z " fill="#78C0D8" transform="translate(208,318)"/>
<path d="M0 0 C2.31 0 4.62 0 7 0 C7 0.66 7 1.32 7 2 C2.52941176 6 2.52941176 6 0 6 C0 6.66 0 7.32 0 8 C-0.66 8 -1.32 8 -2 8 C-2 8.66 -2 9.32 -2 10 C-2.66 10 -3.32 10 -4 10 C-4.66 11.32 -5.32 12.64 -6 14 C-6.33 13.01 -6.66 12.02 -7 11 C-6.21625 10.29875 -5.4325 9.5975 -4.625 8.875 C-1.91639182 5.90842914 -0.98277285 3.8417484 0 0 Z " fill="#6BBCD3" transform="translate(133,166)"/>
<path d="M0 0 C0.99 0.33 1.98 0.66 3 1 C3 1.66 3 2.32 3 3 C8.28 3 13.56 3 19 3 C15.72872414 5.18085057 14.72623277 5.24887859 10.9375 5.1875 C10.05964844 5.18105469 9.18179687 5.17460937 8.27734375 5.16796875 C6 5 6 5 4 4 C3.67 4.99 3.34 5.98 3 7 C1.35 7 -0.3 7 -2 7 C-1.34 6.67 -0.68 6.34 0 6 C0 5.01 0 4.02 0 3 C-0.66 2.67 -1.32 2.34 -2 2 C-1.34 1.34 -0.68 0.68 0 0 Z " fill="#50BADF" transform="translate(285,399)"/>
<path d="M0 0 C4.57906457 4.91825453 8.80308569 12.01795505 9.140625 18.84375 C9.07101562 19.91109375 9.07101562 19.91109375 9 21 C8.67 20.34 8.34 19.68 8 19 C7.01 18.67 6.02 18.34 5 18 C4.375 16.109375 4.375 16.109375 4 13.75 C3.28003512 9.9000183 2.09314293 7.33000011 0 4 C0 2.68 0 1.36 0 0 Z " fill="#6CBAD4" transform="translate(386,173)"/>
<path d="M0 0 C1.32 0 2.64 0 4 0 C4.33 1.98 4.66 3.96 5 6 C5.66 6 6.32 6 7 6 C6.38722388 8.96175123 5.74627478 10.38058783 4 13 C3.32404685 11.58774074 2.65959941 10.16997095 2 8.75 C1.62875 7.96109375 1.2575 7.1721875 0.875 6.359375 C0 4 0 4 0 0 Z " fill="#48BAE1" transform="translate(199,266)"/>
<path d="M0 0 C2.49361571 1.20381448 4.68143083 2.45428722 7 4 C4.03 4 1.06 4 -2 4 C-2 4.66 -2 5.32 -2 6 C-1.34 6 -0.68 6 0 6 C-0.33 7.65 -0.66 9.3 -1 11 C-1.33 10.34 -1.66 9.68 -2 9 C-4.02463255 8.34786708 -4.02463255 8.34786708 -6 8 C-5.67 7.01 -5.34 6.02 -5 5 C-4.34 5 -3.68 5 -3 5 C-3 4.01 -3 3.02 -3 2 C-2.01 1.34 -1.02 0.68 0 0 Z " fill="#4AB8DF" transform="translate(224,205)"/>
<path d="M0 0 C0.33 0 0.66 0 1 0 C1.97299156 4.85729645 2.12038805 9.4500625 2.0625 14.375 C2.05798828 15.11105469 2.05347656 15.84710938 2.04882812 16.60546875 C2.03715142 18.40368158 2.01922011 20.20185197 2 22 C0.0625 21.6875 0.0625 21.6875 -2 21 C-2.33 20.01 -2.66 19.02 -3 18 C-1.68 18 -0.36 18 1 18 C0.83628906 17.48953125 0.67257812 16.9790625 0.50390625 16.453125 C-0.16698481 13.18708172 -0.0933456 10.0813253 -0.0625 6.75 C-0.05347656 5.48671875 -0.04445313 4.2234375 -0.03515625 2.921875 C-0.02355469 1.95765625 -0.01195312 0.9934375 0 0 Z " fill="#4BACCB" transform="translate(301,218)"/>
<path d="M0 0 C5.36095277 1.58921525 10.70843973 3.18972938 16 5 C14 7 14 7 11.5 7.25 C9 7 9 7 7 5 C4.67724823 4.59952556 2.34260643 4.2602896 0 4 C0 2.68 0 1.36 0 0 Z " fill="#63BFD5" transform="translate(272,366)"/>
<path d="M0 0 C0.33 0 0.66 0 1 0 C1.33 2.97 1.66 5.94 2 9 C2.33 8.34 2.66 7.68 3 7 C3.66 7 4.32 7 5 7 C4.01 10.3 3.02 13.6 2 17 C-2 11 -2 11 -1.6875 8.125 C-1.460625 7.09375 -1.23375 6.0625 -1 5 C-0.814375 4.05125 -0.62875 3.1025 -0.4375 2.125 C-0.293125 1.42375 -0.14875 0.7225 0 0 Z " fill="#7CC2D8" transform="translate(97,210)"/>
<path d="M0 0 C0.66 0 1.32 0 2 0 C2 0.66 2 1.32 2 2 C2.59296875 2.07476562 3.1859375 2.14953125 3.796875 2.2265625 C6.77219986 3.27109144 7.56578892 4.74660998 9.25 7.375 C9.77078125 8.16648437 10.2915625 8.95796875 10.828125 9.7734375 C12 12 12 12 12 15 C7.47619711 10.75036698 3.61682339 6.04479113 0 1 C0 0.67 0 0.34 0 0 Z " fill="#76C2D5" transform="translate(206,285)"/>
<path d="M0 0 C0.66 0 1.32 0 2 0 C2.22084624 6.09781001 2.01167675 11.21642935 0 17 C-0.33 17 -0.66 17 -1 17 C-1.02709444 14.91673869 -1.04643873 12.83337559 -1.0625 10.75 C-1.07410156 9.58984375 -1.08570313 8.4296875 -1.09765625 7.234375 C-1.01782092 4.59022872 -0.78643778 2.50173909 0 0 Z " fill="#60B3CF" transform="translate(404,273)"/>
<path d="M0 0 C1.65 0 3.3 0 5 0 C5.08733513 3.08315385 5.14050127 6.16598827 5.1875 9.25 C5.21263672 10.12269531 5.23777344 10.99539063 5.26367188 11.89453125 C5.33834499 18.41598332 5.33834499 18.41598332 3.48828125 21.609375 C2.99714844 22.06828125 2.50601562 22.5271875 2 23 C1.89458048 17.93327435 2.27297696 13.0681519 3 8.0625 C3.09539062 7.37865234 3.19078125 6.69480469 3.2890625 5.99023438 C3.52179137 4.32622293 3.76028548 2.66301947 4 1 C2.68 0.67 1.36 0.34 0 0 Z " fill="#64B3CF" transform="translate(280,252)"/>
<path d="M0 0 C0.33 0 0.66 0 1 0 C1 8.58 1 17.16 1 26 C0.67 26 0.34 26 0 26 C-0.06058594 25.11957031 -0.12117188 24.23914063 -0.18359375 23.33203125 C-0.26738281 22.17058594 -0.35117187 21.00914062 -0.4375 19.8125 C-0.51871094 18.66394531 -0.59992188 17.51539063 -0.68359375 16.33203125 C-0.92994685 13.0901214 -0.92994685 13.0901214 -1.55859375 10.30859375 C-2.18208367 7.04768629 -1.62196943 4.23424106 -1 1 C-0.67 0.67 -0.34 0.34 0 0 Z " fill="#29BFE7" transform="translate(404,241)"/>
<path d="M0 0 C4.95 0.99 4.95 0.99 10 2 C10.33 2.99 10.66 3.98 11 5 C8.69 5.66 6.38 6.32 4 7 C4 6.01 4 5.02 4 4 C2.68 3.67 1.36 3.34 0 3 C0 2.01 0 1.02 0 0 Z " fill="#41BDE4" transform="translate(222,222)"/>
<path d="M0 0 C5.61137348 0.49222574 10.05153441 1.22885927 15 4 C16.4375 6.6875 16.4375 6.6875 17 9 C13.10391502 7.51095825 9.40902982 5.75621287 5.6875 3.875 C4.61886719 3.33617187 3.55023438 2.79734375 2.44921875 2.2421875 C1.64097656 1.83226562 0.83273438 1.42234375 0 1 C0 0.67 0 0.34 0 0 Z " fill="#80C3D8" transform="translate(244,148)"/>
<path d="M0 0 C0 0.99 0 1.98 0 3 C-0.639375 3.2475 -1.27875 3.495 -1.9375 3.75 C-4.19635114 4.78813195 -4.19635114 4.78813195 -4.5 7 C-4.665 7.66 -4.83 8.32 -5 9 C-7 10.125 -7 10.125 -9 11 C-9.33 11.66 -9.66 12.32 -10 13 C-12.5625 13.625 -12.5625 13.625 -15 14 C-14.34 13.01 -13.68 12.02 -13 11 C-12.34 11 -11.68 11 -11 11 C-11 10.34 -11 9.68 -11 9 C-9.21895282 7.39821407 -7.37462722 5.86618074 -5.5 4.375 C-4.4790625 3.55773437 -3.458125 2.74046875 -2.40625 1.8984375 C-1.6121875 1.27195313 -0.818125 0.64546875 0 0 Z " fill="#79C2D7" transform="translate(154,127)"/>
<path d="M0 0 C7.37297297 2.34594595 7.37297297 2.34594595 10 4 C10.33 4.99 10.66 5.98 11 7 C11.66 7.66 12.32 8.32 13 9 C11.68 9 10.36 9 9 9 C9 8.01 9 7.02 9 6 C7.35 6 5.7 6 4 6 C3.67 5.01 3.34 4.02 3 3 C2.01 3 1.02 3 0 3 C0 2.01 0 1.02 0 0 Z " fill="#41B5DA" transform="translate(167,290)"/>
<path d="M0 0 C0 0.99 0 1.98 0 3 C-1.91635217 3.05423638 -3.83314925 3.09289963 -5.75 3.125 C-7.35101563 3.15980469 -7.35101563 3.15980469 -8.984375 3.1953125 C-11.92470106 3.00487687 -13.52361878 2.52670104 -16 1 C-10.59255982 0.22750855 -5.46137814 -0.09752461 0 0 Z " fill="#61B8D5" transform="translate(272,408)"/>
<path d="M0 0 C-0.33 0.66 -0.66 1.32 -1 2 C-3.50390625 2.4140625 -3.50390625 2.4140625 -6.5625 2.625 C-7.57441406 2.69976562 -8.58632812 2.77453125 -9.62890625 2.8515625 C-10.41136719 2.90054687 -11.19382812 2.94953125 -12 3 C-12.33 5.64 -12.66 8.28 -13 11 C-13.33 11 -13.66 11 -14 11 C-14.33 8.36 -14.66 5.72 -15 3 C-9.63560356 0.31780178 -5.98993047 -0.3152595 0 0 Z " fill="#84BFD5" transform="translate(109,278)"/>
<path d="M0 0 C2.4294516 3.6441774 2.16179575 5.71241272 2 10 C1.34 10 0.68 10 0 10 C-0.33 10.99 -0.66 11.98 -1 13 C-1.33 13 -1.66 13 -2 13 C-2 9.7 -2 6.4 -2 3 C-1.34 3 -0.68 3 0 3 C0 2.01 0 1.02 0 0 Z " fill="#3EBAE1" transform="translate(100,207)"/>
<path d="M0 0 C0.721875 0.309375 1.44375 0.61875 2.1875 0.9375 C4.80307309 1.92560539 7.25118982 2.5287754 10 3 C10 4.32 10 5.64 10 7 C10.66 7 11.32 7 12 7 C12 7.66 12 8.32 12 9 C8.943846 8.39281709 6.84238324 7.43597932 4.3125 5.625 C3.71050781 5.20476562 3.10851562 4.78453125 2.48828125 4.3515625 C1 3 1 3 0 0 Z " fill="#67B7D1" transform="translate(260,155)"/>
<path d="M0 0 C0 4.50115897 -2.38363937 7.44234248 -5 11 C-7.3125 13 -7.3125 13 -9 14 C-9.66 13.67 -10.32 13.34 -11 13 C-7.37 8.71 -3.74 4.42 0 0 Z " fill="#7BBFD7" transform="translate(131,149)"/>
<path d="M0 0 C0.99 0 1.98 0 3 0 C3 0.66 3 1.32 3 2 C2.34 2 1.68 2 1 2 C0.7525 2.515625 0.505 3.03125 0.25 3.5625 C-1.10171059 6.19833565 -2.5680515 8.75053712 -4.046875 11.31640625 C-5.10122643 13.1788057 -6.07393445 15.07069677 -7 17 C-7 14.69 -7 12.38 -7 10 C-6.34 10 -5.68 10 -5 10 C-5 9.01 -5 8.02 -5 7 C-4.34 7 -3.68 7 -3 7 C-2.814375 6.1028125 -2.814375 6.1028125 -2.625 5.1875 C-2 3 -2 3 0 0 Z " fill="#80C1D3" transform="translate(221,233)"/>
<path d="M0 0 C0.33 0.99 0.66 1.98 1 3 C1.66 3 2.32 3 3 3 C3.125 5.375 3.125 5.375 3 8 C2.34 8.66 1.68 9.32 1 10 C0.01 10 -0.98 10 -2 10 C-2 7.69 -2 5.38 -2 3 C-1.34 3 -0.68 3 0 3 C0 2.01 0 1.02 0 0 Z " fill="#3ABCE8" transform="translate(107,191)"/>
<path d="M0 0 C1.98 0.495 1.98 0.495 4 1 C3.67 2.32 3.34 3.64 3 5 C1.68 4.67 0.36 4.34 -1 4 C-0.67 2.68 -0.34 1.36 0 0 Z M-6 4 C-4.35 4 -2.7 4 -1 4 C-1.33 4.99 -1.66 5.98 -2 7 C-4.0625 7.6875 -4.0625 7.6875 -6 8 C-6 6.68 -6 5.36 -6 4 Z " fill="#2BBFEA" transform="translate(148,137)"/>
<path d="M0 0 C1.0625 1.875 1.0625 1.875 2 4 C1.67 4.66 1.34 5.32 1 6 C0.13375 5.9175 -0.7325 5.835 -1.625 5.75 C-5.77276338 6.05724173 -7.65867314 7.62394535 -11 10 C-11.99 10 -12.98 10 -14 10 C-11.77337136 5.96423558 -9.13146445 5.08743518 -4.9375 3.80859375 C-2.74604226 2.8940136 -1.56305103 1.76331694 0 0 Z " fill="#4AB8DB" transform="translate(166,121)"/>
<path d="M0 0 C2.66984914 3.10379157 3.60357986 5.60958974 4.3125 9.625 C4.49425781 10.58664062 4.67601563 11.54828125 4.86328125 12.5390625 C4.93095703 13.75722656 4.93095703 13.75722656 5 15 C4.34 15.66 3.68 16.32 3 17 C1.03181664 11.17745757 -0.40214229 6.16618181 0 0 Z " fill="#6DBAD1" transform="translate(97,290)"/>
<path d="M0 0 C0.33 0.99 0.66 1.98 1 3 C-0.07421875 5.0859375 -0.07421875 5.0859375 -1.6875 7.375 C-2.24050781 8.16519531 -2.79351562 8.95539063 -3.36328125 9.76953125 C-5.17501454 12.23850429 -7.031874 14.65338823 -9 17 C-9 15.68 -9 14.36 -9 13 C-8.34 13 -7.68 13 -7 13 C-6.95875 12.34 -6.9175 11.68 -6.875 11 C-5.5948343 6.61086045 -2.85190633 3.51473471 0 0 Z " fill="#77BBD2" transform="translate(118,186)"/>
<path d="M0 0 C1.875 0.3125 1.875 0.3125 4 1 C4.66 1.99 5.32 2.98 6 4 C6.598125 3.67 7.19625 3.34 7.8125 3 C10 2 10 2 13 2 C13 3.32 13 4.64 13 6 C11.68 6 10.36 6 9 6 C8.67 6.66 8.34 7.32 8 8 C6.2925002 6.71937515 4.62626404 5.38232443 3 4 C3 3.34 3 2.68 3 2 C2.01 1.67 1.02 1.34 0 1 C0 0.67 0 0.34 0 0 Z " fill="#48B9E3" transform="translate(144,368)"/>
<path d="M0 0 C0.33 0 0.66 0 1 0 C1.19335938 0.60328125 1.38671875 1.2065625 1.5859375 1.828125 C1.84632813 2.62734375 2.10671875 3.4265625 2.375 4.25 C2.63023437 5.03890625 2.88546875 5.8278125 3.1484375 6.640625 C3.95173667 8.86627958 4.89711662 10.90931672 6 13 C4.68 13.33 3.36 13.66 2 14 C0.02905192 9.07262981 -0.1799928 5.21979128 0 0 Z " fill="#73C0D6" transform="translate(214,267)"/>
<path d="M0 0 C3.24732932 1.62366466 3.70155136 4.75387839 5 8 C5.66 8 6.32 8 7 8 C7 9.32 7 10.64 7 12 C5.35 11.67 3.7 11.34 2 11 C1.34 7.37 0.68 3.74 0 0 Z " fill="#7CC1D5" transform="translate(295,224)"/>
<path d="M0 0 C5.07648175 2.78387709 9.4833069 6.40829416 14 10 C12.68 10.33 11.36 10.66 10 11 C10 10.34 10 9.68 10 9 C9.34 9 8.68 9 8 9 C8 8.34 8 7.68 8 7 C7.195625 6.731875 6.39125 6.46375 5.5625 6.1875 C4.716875 5.795625 3.87125 5.40375 3 5 C2.67 4.01 2.34 3.02 2 2 C1.34 2 0.68 2 0 2 C0 1.34 0 0.68 0 0 Z " fill="#80C2D9" transform="translate(338,122)"/>
<path d="M0 0 C2.31309705 0.11341637 4.62550185 0.24103807 6.9375 0.375 C8.86916016 0.47941406 8.86916016 0.47941406 10.83984375 0.5859375 C12.40412109 0.79089844 12.40412109 0.79089844 14 1 C14.33 1.66 14.66 2.32 15 3 C12.87506859 3.02693575 10.75004088 3.04636628 8.625 3.0625 C7.44164062 3.07410156 6.25828125 3.08570312 5.0390625 3.09765625 C2 3 2 3 0 2 C0 1.34 0 0.68 0 0 Z " fill="#6DB7CE" transform="translate(264,96)"/>
<path d="M0 0 C0.33 0 0.66 0 1 0 C1 3.63 1 7.26 1 11 C-0.65 11.66 -2.3 12.32 -4 13 C-3.52140759 11.39566191 -3.04210442 9.79153584 -2.5625 8.1875 C-2.29566406 7.29417969 -2.02882813 6.40085938 -1.75390625 5.48046875 C-1.19612127 3.64526945 -0.60655425 1.81966274 0 0 Z " fill="#6DBFD6" transform="translate(104,190)"/>
<path d="M0 0 C5.96652354 1.57013777 10.82909025 4.75029782 16 8 C14 9 14 9 11.6171875 8.22265625 C10.25980469 7.64837891 10.25980469 7.64837891 8.875 7.0625 C7.96492188 6.68222656 7.05484375 6.30195312 6.1171875 5.91015625 C5.41851562 5.60980469 4.71984375 5.30945313 4 5 C4 4.34 4 3.68 4 3 C3.01 3 2.02 3 1 3 C0.67 2.01 0.34 1.02 0 0 Z " fill="#82C2DA" transform="translate(317,110)"/>
<path d="M0 0 C2.31 0.33 4.62 0.66 7 1 C6.375 2.9375 6.375 2.9375 5 5 C1.875 5.75 1.875 5.75 -1 6 C-1 2 -1 2 0 0 Z " fill="#62BEDB" transform="translate(305,396)"/>
<path d="M0 0 C3.9492568 0.55105909 7.34920174 1.38935371 11 3 C11 3.66 11 4.32 11 5 C11.99 5.33 12.98 5.66 14 6 C8.94744036 5.36843005 4.70406799 3.86540627 0 2 C0 1.34 0 0.68 0 0 Z " fill="#71C2D5" transform="translate(273,338)"/>
<path d="M0 0 C4.38889325 0.66498383 7.9811485 2.18757677 12 4 C7.91556885 5.53166168 4.20544343 4.63081652 0 4 C0 2.68 0 1.36 0 0 Z " fill="#6BBEDA" transform="translate(155,285)"/>
<path d="M0 0 C0.33 0 0.66 0 1 0 C1.46192125 4.92715996 -0.1724717 8.50732625 -2 13 C-2.66 12.67 -3.32 12.34 -4 12 C-4.99 11.67 -5.98 11.34 -7 11 C-6.21625 10.113125 -5.4325 9.22625 -4.625 8.3125 C-2.42843009 5.69279481 -1.06209659 3.28284399 0 0 Z " fill="#82C5DA" transform="translate(281,271)"/>
<path d="M0 0 C2.954889 3.5458668 5.45934985 7.63781033 7 12 C6.67 12.99 6.34 13.98 6 15 C4.98634107 13.44632634 3.98957744 11.88162164 3 10.3125 C2.443125 9.44238281 1.88625 8.57226562 1.3125 7.67578125 C-0.08325608 4.83026663 -0.26993648 3.1211406 0 0 Z " fill="#6FBDD4" transform="translate(199,270)"/>
<path d="M0 0 C0.33 0.66 0.66 1.32 1 2 C-0.24196122 3.15454162 -1.49392845 4.29832562 -2.75 5.4375 C-3.79414063 6.39462891 -3.79414063 6.39462891 -4.859375 7.37109375 C-6.98792725 8.99081325 -8.39023405 9.58267256 -11 10 C-7.65996398 5.67760044 -4.67248931 2.82522609 0 0 Z " fill="#7EC5DA" transform="translate(220,208)"/>
<path d="M0 0 C0.66 0.33 1.32 0.66 2 1 C2 4.16880694 1.7941758 5.43689172 0 8 C-2.625 8.75 -2.625 8.75 -5 9 C-3.7508258 5.54074837 -2.32472205 2.85306797 0 0 Z " fill="#3DB8DF" transform="translate(133,148)"/>
<path d="M0 0 C0.0825 0.556875 0.165 1.11375 0.25 1.6875 C1.22610013 4.69714206 2.95188814 6.62154752 5 9 C3.68 10.32 2.36 11.64 1 13 C-0.2834998 8.9088444 -1.38021934 5.3091525 -1 1 C-0.67 0.67 -0.34 0.34 0 0 Z " fill="#44B9E0" transform="translate(111,181)"/>
<path d="M0 0 C4.5076467 0.53031138 7.41954788 2.25221116 11 5 C11 5.66 11 6.32 11 7 C6.00724943 5.72278474 3.42388092 3.82669043 0 0 Z " fill="#7BC1D7" transform="translate(243,322)"/>
<path d="M0 0 C2.66666667 2.66666667 5.33333333 5.33333333 8 8 C5.03 7.67 2.06 7.34 -1 7 C-0.67 4.69 -0.34 2.38 0 0 Z " fill="#64BCD7" transform="translate(220,280)"/>
<path d="M0 0 C3.39417765 3.12621626 5.6062718 5.56541027 7 10 C6.01 10.33 5.02 10.66 4 11 C3.67 10.01 3.34 9.02 3 8 C2.34 7.67 1.68 7.34 1 7 C0.59270772 4.67843403 0.25561323 2.3431213 0 0 Z " fill="#79C0D9" transform="translate(376,158)"/>
<path d="M0 0 C-0.33 0.66 -0.66 1.32 -1 2 C-5.29 2 -9.58 2 -14 2 C-8.83363353 -0.58318323 -5.62102204 -1.44540567 0 0 Z " fill="#7EBED9" transform="translate(222,99)"/>
<path d="M0 0 C4.29 1.65 8.58 3.3 13 5 C10 7 10 7 6 7 C5.67 6.34 5.34 5.68 5 5 C4.01 4.67 3.02 4.34 2 4 C2 3.34 2 2.68 2 2 C1.34 2 0.68 2 0 2 C0 1.34 0 0.68 0 0 Z " fill="#7DC8DB" transform="translate(228,288)"/>
<path d="M0 0 C0.33 0.99 0.66 1.98 1 3 C3.97 3.495 3.97 3.495 7 4 C6.67 4.99 6.34 5.98 6 7 C5.34 7 4.68 7 4 7 C4 6.34 4 5.68 4 5 C3.34 5 2.68 5 2 5 C1.34 6.32 0.68 7.64 0 9 C0 6.03 0 3.06 0 0 Z " fill="#55B4DB" transform="translate(96,283)"/>
<path d="M0 0 C0.99 0.33 1.98 0.66 3 1 C3 4.63 3 8.26 3 12 C2.34 10.68 1.68 9.36 1 8 C0.67 7.67 0.34 7.34 0 7 C-0.04092937 4.66702567 -0.04241723 2.33294775 0 0 Z " fill="#55B1CE" transform="translate(403,223)"/>
<path d="M0 0 C5.2688172 7.90322581 5.2688172 7.90322581 4.6875 12.4375 C4.460625 12.953125 4.23375 13.46875 4 14 C3.67 14 3.34 14 3 14 C2.87625 13.195625 2.7525 12.39125 2.625 11.5625 C2.315625 10.2940625 2.315625 10.2940625 2 9 C1.34 8.67 0.68 8.34 0 8 C0 5.36 0 2.72 0 0 Z " fill="#81C3DA" transform="translate(395,190)"/>
<path d="M0 0 C-3.2811302 2.18742014 -5.33084356 2.54442806 -9.1875 3.125 C-10.27417969 3.29257813 -11.36085937 3.46015625 -12.48046875 3.6328125 C-13.31191406 3.75398438 -14.14335937 3.87515625 -15 4 C-14 2 -14 2 -11.85546875 1.11328125 C-10.97503906 0.84902344 -10.09460938 0.58476563 -9.1875 0.3125 C-8.31480469 0.04050781 -7.44210938 -0.23148437 -6.54296875 -0.51171875 C-3.93126166 -1.01319861 -2.48283616 -0.86233704 0 0 Z " fill="#86C6D7" transform="translate(209,102)"/>
<path d="M0 0 C3.63 2.31 7.26 4.62 11 7 C10.34 7.66 9.68 8.32 9 9 C7.68103535 8.07161713 6.37001311 7.13194268 5.0625 6.1875 C4.33160156 5.66542969 3.60070312 5.14335937 2.84765625 4.60546875 C1 3 1 3 0 0 Z " fill="#68B8CB" transform="translate(151,375)"/>
<path d="M0 0 C-0.66 0 -1.32 0 -2 0 C-2 0.66 -2 1.32 -2 2 C-4.64 2.33 -7.28 2.66 -10 3 C-10 2.01 -10 1.02 -10 0 C-6.33694766 -0.74926071 -3.57644848 -1.2380014 0 0 Z " fill="#4EB6D8" transform="translate(344,347)"/>
<path d="M0 0 C4.96916636 0.51405169 9.29026351 1.23384882 14 3 C12.328125 4.1171875 12.328125 4.1171875 10 5 C7.421875 4.3203125 7.421875 4.3203125 4.75 3.125 C3.85796875 2.73570312 2.9659375 2.34640625 2.046875 1.9453125 C1.37140625 1.63335937 0.6959375 1.32140625 0 1 C0 0.67 0 0.34 0 0 Z " fill="#7DBED6" transform="translate(186,398)"/>
<path d="M0 0 C2.31 0.33 4.62 0.66 7 1 C7 1.99 7 2.98 7 4 C8.32 4 9.64 4 11 4 C11.33 4.99 11.66 5.98 12 7 C7.39104317 5.68315519 3.85859765 3.84801255 0 1 C0 0.67 0 0.34 0 0 Z " fill="#7EC0D5" transform="translate(169,389)"/>
<path d="M0 0 C0 0.66 0 1.32 0 2 C-0.66 2 -1.32 2 -2 2 C-2 2.99 -2 3.98 -2 5 C-4.31 5 -6.62 5 -9 5 C-9 4.34 -9 3.68 -9 3 C-2.25 0 -2.25 0 0 0 Z " fill="#2DBEE9" transform="translate(345,375)"/>
<path d="M0 0 C-2.96687001 1.64826111 -5.65626525 2.44271087 -9 3 C-9.33 2.01 -9.66 1.02 -10 0 C-6.7169902 -1.6415049 -3.57454967 -0.51888624 0 0 Z " fill="#45BBE4" transform="translate(265,203)"/>
<path d="M0 0 C3.125 0.375 3.125 0.375 6 1 C6 1.99 6 2.98 6 4 C4.68 4.33 3.36 4.66 2 5 C2 4.34 2 3.68 2 3 C0.68 2.67 -0.64 2.34 -2 2 C-1.34 1.34 -0.68 0.68 0 0 Z " fill="#48B9E6" transform="translate(334,123)"/>
<path d="M0 0 C0.66 0 1.32 0 2 0 C2 0.66 2 1.32 2 2 C3.65 2.33 5.3 2.66 7 3 C7 4.32 7 5.64 7 7 C7.66 7.66 8.32 8.32 9 9 C8.01 9 7.02 9 6 9 C4.39453125 7.28515625 4.39453125 7.28515625 2.8125 5.0625 C2.28269531 4.33160156 1.75289063 3.60070312 1.20703125 2.84765625 C0 1 0 1 0 0 Z " fill="#7DC2D7" transform="translate(120,344)"/>
<path d="M0 0 C4.29 0 8.58 0 13 0 C9 3 9 3 6.640625 2.85546875 C5.85171875 2.63503906 5.0628125 2.41460937 4.25 2.1875 C3.45078125 1.97480469 2.6515625 1.76210938 1.828125 1.54296875 C0.92320312 1.27419922 0.92320312 1.27419922 0 1 C0 0.67 0 0.34 0 0 Z " fill="#4BBAE1" transform="translate(240,296)"/>
<path d="M0 0 C2.31 0 4.62 0 7 0 C7.33 0.99 7.66 1.98 8 3 C5.36 3 2.72 3 0 3 C0 2.01 0 1.02 0 0 Z " fill="#33BEEC" transform="translate(97,283)"/>
<path d="M0 0 C1.32 0.33 2.64 0.66 4 1 C3.01 1.33 2.02 1.66 1 2 C-0.37334617 4.28891028 -1.15250816 6.45752447 -2 9 C-2.66 9 -3.32 9 -4 9 C-4 7.68 -4 6.36 -4 5 C-3.34 5 -2.68 5 -2 5 C-1.34 3.35 -0.68 1.7 0 0 Z " fill="#45B5D9" transform="translate(128,171)"/>
<path d="M0 0 C1.65 0 3.3 0 5 0 C3.625 1.5 3.625 1.5 2 3 C1.34 3 0.68 3 0 3 C0 3.66 0 4.32 0 5 C-1.98 5 -3.96 5 -6 5 C-5.67 4.34 -5.34 3.68 -5 3 C-3.68 3 -2.36 3 -1 3 C-0.67 2.01 -0.34 1.02 0 0 Z " fill="#47B8DC" transform="translate(183,140)"/>
<path d="M0 0 C-2 2 -2 2 -4.625 2.125 C-5.40875 2.08375 -6.1925 2.0425 -7 2 C-7 2.66 -7 3.32 -7 4 C-9 3 -9 3 -10 0 C-3.375 -1.125 -3.375 -1.125 0 0 Z " fill="#60B8D8" transform="translate(346,380)"/>
<path d="M0 0 C1.32 0.66 2.64 1.32 4 2 C4 3.65 4 5.3 4 7 C3.01 7 2.02 7 1 7 C0.34 5.02 -0.32 3.04 -1 1 C-0.67 0.67 -0.34 0.34 0 0 Z " fill="#2FBFEC" transform="translate(117,327)"/>
<path d="M0 0 C1.98 0.99 1.98 0.99 4 2 C4.875 5 4.875 5 5 8 C4.34 8.66 3.68 9.32 3 10 C2.01 6.7 1.02 3.4 0 0 Z " fill="#7DBCD0" transform="translate(101,307)"/>
<path d="M0 0 C1.98 0 3.96 0 6 0 C6 3.63 6 7.26 6 11 C5.67 11 5.34 11 5 11 C4.67 8.03 4.34 5.06 4 2 C2.68 2.33 1.36 2.66 0 3 C0 2.01 0 1.02 0 0 Z " fill="#B6E0EC" transform="translate(278,253)"/>
<path d="M0 0 C0.99 0.495 0.99 0.495 2 1 C2.4140625 3.28515625 2.4140625 3.28515625 2.625 6.0625 C2.69976562 6.98160156 2.77453125 7.90070313 2.8515625 8.84765625 C2.92503906 9.91306641 2.92503906 9.91306641 3 11 C1 10 1 10 0 7 C-0.03954234 4.66700175 -0.04401732 2.33291811 0 0 Z " fill="#48B9E3" transform="translate(249,232)"/>
<path d="M0 0 C0.66 0 1.32 0 2 0 C3.625 3.25 3.625 3.25 5 7 C4.34 8.32 3.68 9.64 3 11 C2.01 7.37 1.02 3.74 0 0 Z " fill="#6FC0D5" transform="translate(293,195)"/>
<path d="M0 0 C0.99 0 1.98 0 3 0 C3.33 2.31 3.66 4.62 4 7 C2.35 6.01 0.7 5.02 -1 4 C-0.67 2.68 -0.34 1.36 0 0 Z " fill="#2DC0EA" transform="translate(135,157)"/>
<path d="M0 0 C2.475 0.495 2.475 0.495 5 1 C5 2.98 5 4.96 5 7 C4.67 6.34 4.34 5.68 4 5 C3.01 5 2.02 5 1 5 C0.67 3.35 0.34 1.7 0 0 Z " fill="#5BB4D0" transform="translate(118,339)"/>
<path d="M0 0 C0.66 0 1.32 0 2 0 C2 2.31 2 4.62 2 7 C1.01 7 0.02 7 -1 7 C-1.04254356 5.00045254 -1.04080783 2.99958364 -1 1 C-0.67 0.67 -0.34 0.34 0 0 Z " fill="#41BBE4" transform="translate(103,201)"/>
<path d="M0 0 C1.125 3.75 1.125 3.75 0 6 C-0.66 6 -1.32 6 -2 6 C-2.33 6.66 -2.66 7.32 -3 8 C-3 5.69 -3 3.38 -3 1 C-2.01 0.67 -1.02 0.34 0 0 Z " fill="#58B4D4" transform="translate(108,200)"/>
<path d="M0 0 C1 2 1 2 0.375 4.5625 C-1 7 -1 7 -3.625 7.8125 C-4.40875 7.874375 -5.1925 7.93625 -6 8 C-6 7.34 -6 6.68 -6 6 C-5.34 6 -4.68 6 -4 6 C-3.71125 5.38125 -3.4225 4.7625 -3.125 4.125 C-2 2 -2 2 0 0 Z " fill="#76C8DB" transform="translate(138,141)"/>
<path d="M0 0 C2.31 0.66 4.62 1.32 7 2 C7 3.65 7 5.3 7 7 C6.01 6.34 5.02 5.68 4 5 C4 4.34 4 3.68 4 3 C2.68 2.67 1.36 2.34 0 2 C0 1.34 0 0.68 0 0 Z " fill="#54B7D6" transform="translate(243,350)"/>
<path d="M0 0 C0.66 0 1.32 0 2 0 C2 0.99 2 1.98 2 3 C2.66 3 3.32 3 4 3 C4 3.66 4 4.32 4 5 C4.66 5.33 5.32 5.66 6 6 C4.02 6 2.04 6 0 6 C-1 3 -1 3 0 0 Z " fill="#4BB6DF" transform="translate(224,334)"/>
<path d="M0 0 C1.32 0 2.64 0 4 0 C4 0.66 4 1.32 4 2 C4.66 2 5.32 2 6 2 C6 2.66 6 3.32 6 4 C2.25 5.125 2.25 5.125 0 4 C0 2.68 0 1.36 0 0 Z " fill="#41B7DA" transform="translate(224,288)"/>
<path d="M0 0 C1.98 0 3.96 0 6 0 C6 0.66 6 1.32 6 2 C6.66 2.33 7.32 2.66 8 3 C5.36 3 2.72 3 0 3 C0 2.01 0 1.02 0 0 Z " fill="#47B4D8" transform="translate(263,252)"/>
<path d="M0 0 C0.66 0 1.32 0 2 0 C1.38983051 5.49152542 1.38983051 5.49152542 -0.4375 7.875 C-2 9 -2 9 -4 9 C-4 8.34 -4 7.68 -4 7 C-3.34 7 -2.68 7 -2 7 C-1.34 4.69 -0.68 2.38 0 0 Z " fill="#49B5DC" transform="translate(206,222)"/>
<path d="M0 0 C4.51478398 0.53115106 7.34666857 2.36620292 11 5 C10.01 5.66 9.02 6.32 8 7 C8 6.34 8 5.68 8 5 C6.8553125 4.5978125 6.8553125 4.5978125 5.6875 4.1875 C3.12619116 3.05575888 1.80307062 2.08776599 0 0 Z " fill="#66BCD0" transform="translate(273,206)"/>
<path d="M0 0 C0.66 0 1.32 0 2 0 C2.33 2.64 2.66 5.28 3 8 C2.67 7.34 2.34 6.68 2 6 C1.01 5.67 0.02 5.34 -1 5 C-0.67 3.35 -0.34 1.7 0 0 Z " fill="#54B4D5" transform="translate(392,186)"/>
<path d="M0 0 C0.66 1.32 1.32 2.64 2 4 C0.68 4.99 -0.64 5.98 -2 7 C-2.33 5.35 -2.66 3.7 -3 2 C-2.01 2 -1.02 2 0 2 C0 1.34 0 0.68 0 0 Z " fill="#43BAE2" transform="translate(389,182)"/>
<path d="M0 0 C1.32 0.33 2.64 0.66 4 1 C3.01 1 2.02 1 1 1 C1 2.32 1 3.64 1 5 C-0.65 5.33 -2.3 5.66 -4 6 C-2.68 4.02 -1.36 2.04 0 0 Z " fill="#56B4D4" transform="translate(376,331)"/>
<path d="M0 0 C2.12508244 3.18762365 2.5020163 5.26512223 3 9 C2.34 9 1.68 9 1 9 C-1 6 -1 6 -0.625 2.8125 C-0.41875 1.884375 -0.2125 0.95625 0 0 Z " fill="#30BEE9" transform="translate(102,297)"/>
<path d="M0 0 C3.00617269 3.00617269 2.59585316 5.82381598 3 10 C2.34 10 1.68 10 1 10 C0.67 6.7 0.34 3.4 0 0 Z " fill="#6BB2D0" transform="translate(402,213)"/>
<path d="M0 0 C1 3 1 3 0.22265625 5.04296875 C-0.16019531 5.75066406 -0.54304688 6.45835937 -0.9375 7.1875 C-1.31777344 7.90292969 -1.69804688 8.61835938 -2.08984375 9.35546875 C-2.54037109 10.16951172 -2.54037109 10.16951172 -3 11 C-3.33 11 -3.66 11 -4 11 C-4.20140476 7.37471432 -3.85776765 5.13498292 -2 2 C-1.34 2 -0.68 2 0 2 C0 1.34 0 0.68 0 0 Z " fill="#86C5D5" transform="translate(106,206)"/>
<path d="M0 0 C2.49361571 1.20381448 4.68143083 2.45428722 7 4 C0.9453125 4.1953125 0.9453125 4.1953125 -1 4 C-1.66 3.34 -2.32 2.68 -3 2 C-2.01 1.34 -1.02 0.68 0 0 Z " fill="#65C3E7" transform="translate(224,205)"/>
<path d="M0 0 C0.33 0.66 0.66 1.32 1 2 C1.66 2.33 2.32 2.66 3 3 C1.36587557 4.70840281 0.13093906 5.93453047 -2 7 C-2.33 5.02 -2.66 3.04 -3 1 C-2.01 0.67 -1.02 0.34 0 0 Z " fill="#44B7DF" transform="translate(141,159)"/>
<path d="M0 0 C3.37462715 0.54723683 5.08235 1.0549 8 3 C8 3.66 8 4.32 8 5 C4.62496331 3.8141763 2.35277269 2.72426311 0 0 Z " fill="#84C0D0" transform="translate(161,384)"/>
<path d="M0 0 C0.66 0 1.32 0 2 0 C1.67 0.99 1.34 1.98 1 3 C0.34 3 -0.32 3 -1 3 C-1 3.66 -1 4.32 -1 5 C-2.98 5.99 -2.98 5.99 -5 7 C-4.67 5.68 -4.34 4.36 -4 3 C-2.68 2.67 -1.36 2.34 0 2 C0 1.34 0 0.68 0 0 Z " fill="#86C4D6" transform="translate(352,372)"/>
<path d="M0 0 C0 0.33 0 0.66 0 1 C-6.625 1.25 -6.625 1.25 -10 -1 C-5.92224809 -1.9267618 -3.57818963 -2.33958553 0 0 Z " fill="#46BCE5" transform="translate(309,346)"/>
<path d="M0 0 C3.91211733 1.15585285 6.8745041 2.35534962 10 5 C8.35 5 6.7 5 5 5 C4.67 4.01 4.34 3.02 4 2 C2.68 2 1.36 2 0 2 C0 1.34 0 0.68 0 0 Z " fill="#81C3DB" transform="translate(167,290)"/>
<path d="M0 0 C0.66 0 1.32 0 2 0 C2 0.66 2 1.32 2 2 C3.32 2.33 4.64 2.66 6 3 C6.33 4.32 6.66 5.64 7 7 C3.17053157 5.54744301 1.87949705 3.57104439 0 0 Z " fill="#65B7D3" transform="translate(206,285)"/>
<path d="M0 0 C1.98 0.66 3.96 1.32 6 2 C6 2.66 6 3.32 6 4 C4.35 4.33 2.7 4.66 1 5 C0.67 3.35 0.34 1.7 0 0 Z " fill="#49B6DD" transform="translate(227,223)"/>
<path d="M0 0 C2.4294516 3.6441774 2.16179575 5.71241272 2 10 C1.67 10 1.34 10 1 10 C1 8.35 1 6.7 1 5 C0.34 5 -0.32 5 -1 5 C-1.33 5.66 -1.66 6.32 -2 7 C-2 5.68 -2 4.36 -2 3 C-1.34 3 -0.68 3 0 3 C0 2.01 0 1.02 0 0 Z " fill="#4AB2D6" transform="translate(100,207)"/>
<path d="M0 0 C0.99 0 1.98 0 3 0 C2.67 1.65 2.34 3.3 2 5 C1.01 4.67 0.02 4.34 -1 4 C-0.67 2.68 -0.34 1.36 0 0 Z " fill="#45BCE2" transform="translate(270,329)"/>
<path d="M0 0 C0.66 0.33 1.32 0.66 2 1 C1.34 2.65 0.68 4.3 0 6 C-0.99 6 -1.98 6 -3 6 C-1.125 1.125 -1.125 1.125 0 0 Z " fill="#35BFED" transform="translate(217,282)"/>
<path d="M0 0 C0.66 0 1.32 0 2 0 C2.33 1.98 2.66 3.96 3 6 C2.01 6 1.02 6 0 6 C-0.38218767 4.34385343 -0.71395102 2.67542976 -1 1 C-0.67 0.67 -0.34 0.34 0 0 Z " fill="#49BAE5" transform="translate(293,234)"/>
<path d="M0 0 C-5.75 4 -5.75 4 -8 4 C-8 3.01 -8 2.02 -8 1 C-4.93251126 -0.86240388 -3.40254489 -1.2151946 0 0 Z " fill="#85C5D9" transform="translate(233,228)"/>
<path d="M0 0 C1.32 0.33 2.64 0.66 4 1 C4 2.32 4 3.64 4 5 C3.01 5 2.02 5 1 5 C0.67 3.35 0.34 1.7 0 0 Z " fill="#29C0E7" transform="translate(376,165)"/>
<path d="M0 0 C3 1 3 1 5 3 C4.01 3.66 3.02 4.32 2 5 C1.01 4.67 0.02 4.34 -1 4 C-0.67 2.68 -0.34 1.36 0 0 Z " fill="#43BCE1" transform="translate(162,146)"/>
<path d="M0 0 C0 0.66 0 1.32 0 2 C1.32 2.33 2.64 2.66 4 3 C-0.455 3.495 -0.455 3.495 -5 4 C-5 3.34 -5 2.68 -5 2 C-2 0 -2 0 0 0 Z " fill="#7CC3DC" transform="translate(188,141)"/>
<path d="M0 0 C1.98 0 3.96 0 6 0 C5.67 0.99 5.34 1.98 5 3 C3.35 3 1.7 3 0 3 C0 2.01 0 1.02 0 0 Z " fill="#2CC0E6" transform="translate(224,130)"/>
</svg>
